<?xml version="1.0" encoding="UTF-8" standalone="no"?>
<!-- Created with Inkscape (http://www.inkscape.org/) -->

<svg
   width="248.9803mm"
   height="249.3399mm"
   viewBox="0 0 248.9803 249.33991"
   version="1.1"
   id="svg1"
   xml:space="preserve"
   sodipodi:docname="fav.svg"
   inkscape:version="1.4.2 (f4327f4, 2025-05-13)"
   xmlns:inkscape="http://www.inkscape.org/namespaces/inkscape"
   xmlns:sodipodi="http://sodipodi.sourceforge.net/DTD/sodipodi-0.dtd"
   xmlns="http://www.w3.org/2000/svg"
   xmlns:svg="http://www.w3.org/2000/svg"><sodipodi:namedview
     id="namedview1"
     pagecolor="#ffffff"
     bordercolor="#000000"
     borderopacity="0.25"
     inkscape:showpageshadow="2"
     inkscape:pageopacity="0.0"
     inkscape:pagecheckerboard="0"
     inkscape:deskcolor="#d1d1d1"
     inkscape:document-units="mm"
     inkscape:zoom="0.35945918"
     inkscape:cx="543.87261"
     inkscape:cy="-37.556421"
     inkscape:window-width="1920"
     inkscape:window-height="1009"
     inkscape:window-x="-8"
     inkscape:window-y="-8"
     inkscape:window-maximized="1"
     inkscape:current-layer="g10" /><defs
     id="defs1" /><g
     inkscape:label="Layer 1"
     inkscape:groupmode="layer"
     id="layer1"
     transform="translate(-711.97269,-960.32231)"><g
       id="g10"
       transform="translate(509.02225,558.98763)"><g
         id="g18"
         transform="translate(33.978678,420.43683)"><path
           style="fill:#ebe3d1"
           d="m 282.99139,229.81418 c -7.33124,-0.57918 -18.50622,-2.30948 -24.6291,-3.81351 -5.5104,-1.35358 -14.35808,-4.15636 -19.34977,-6.12965 -19.96708,-7.89328 -38.39634,-21.12165 -50.40127,-36.17763 -2.05168,-2.57312 -4.58595,-6.16872 -4.87049,-6.91024 -0.27038,-0.7046 6.2468,-4.48593 11.84409,-6.87205 1.54902,-0.66034 4.76371,-1.86282 7.14376,-2.67218 10.18634,-3.46396 18.29501,-4.92359 30.12423,-5.42264 9.06626,-0.38248 11.98308,-0.68077 15.48416,-1.58349 6.78927,-1.75054 13.55666,-5.97113 18.29408,-11.40941 4.11605,-4.72497 6.71393,-9.9342 8.16398,-16.37028 1.14129,-5.06565 1.27313,-7.62919 1.02054,-19.84375 -0.44058,-21.30455 -0.25768,-24.929857 1.5351,-30.427083 1.04263,-3.197035 1.5008,-4.107193 5.03748,-10.006901 1.59826,-2.66614 3.41575,-5.940359 4.03886,-7.276042 2.91261,-6.243373 5.26428,-13.934045 6.48686,-21.213931 0.3177,-1.891771 0.6163,-3.479373 0.66355,-3.528005 0.0473,-0.04863 0.1582,0.606212 0.24654,1.455208 0.23854,2.292455 1.46346,8.636169 2.15811,11.176585 1.66492,6.088849 4.83649,13.042227 9.43323,20.681519 5.94238,9.875615 6.30365,12.044571 5.83629,35.0391 -0.15321,7.53808 -0.17855,15.01016 -0.0574,16.93184 0.64815,10.28237 4.11143,18.29463 10.81507,25.02053 4.31698,4.33131 9.02901,7.23628 14.69253,9.05794 4.85035,1.5601 7.31981,1.91149 15.21354,2.1648 8.93823,0.28683 18.67865,1.54471 24.87083,3.21182 7.7708,2.09212 17.98922,6.13908 22.82761,9.04077 1.19654,0.71759 2.59224,1.51496 3.10156,1.77193 0.50932,0.25697 0.96647,0.50243 1.01589,0.54547 0.0494,0.043 -0.42061,0.83157 -1.04452,1.75229 -5.11151,7.54322 -12.40702,15.36797 -20.61827,22.11398 -9.92586,8.15465 -23.19525,15.68238 -36.23852,20.55812 -12.6466,4.72746 -23.86327,7.33023 -37.83542,8.77951 -4.51828,0.46866 -20.66425,0.69815 -25.00312,0.35538 z m 11.39796,-57.93816 c 0.97158,0 2.52364,-1.9855 4.32097,-5.52767 1.01112,-1.99273 2.15628,-3.94101 2.54479,-4.32952 0.38851,-0.38852 1.49547,-1.14012 2.4599,-1.67024 2.1297,-1.17063 2.932,-1.78482 3.54437,-2.71334 0.7054,-1.06957 0.59704,-2.00992 -0.32056,-2.78203 -1.36355,-1.14736 -2.82269,-1.26761 -14.33306,-1.18124 -10.31608,0.0774 -10.71437,0.0993 -11.91961,0.65615 -2.75305,1.27191 -1.79087,3.7871 2.2665,5.92476 2.87402,1.5142 3.0127,1.66953 4.84532,5.4269 0.94583,1.93923 2.19528,4.06615 2.77654,4.7265 1.00456,1.14124 2.32023,1.81351 3.088,1.57787 0.1938,-0.0595 0.52088,-0.10814 0.72684,-0.10814 z M 241.0207,130.58903 c -4.52225,-0.73694 -7.88216,-4.28247 -8.70157,-9.18228 -0.49551,-2.96304 0.63814,-6.20919 3.02069,-8.64954 5.03103,-5.15309 13.00151,-3.91704 16.45788,2.55228 1.03075,1.92926 1.03118,1.93134 1.01673,4.97278 -0.0168,3.54769 -0.4223,4.75021 -2.28175,6.76749 -2.60678,2.82801 -6.03925,4.10519 -9.51198,3.53927 z m 100.58231,-0.14758 c -0.79683,-0.21413 -1.93203,-0.67252 -2.52264,-1.01865 -1.54335,-0.90446 -3.49338,-3.0959 -4.3153,-4.8495 -0.6346,-1.35397 -0.7091,-1.81911 -0.7091,-4.4275 0,-2.75887 0.0464,-3.00888 0.86799,-4.67911 1.47196,-2.99233 4.50583,-5.23436 7.78431,-5.75262 4.34019,-0.68609 8.88588,1.73246 10.86752,5.78212 0.79622,1.62713 0.8531,1.92859 0.8531,4.52149 0,3.50892 -0.50857,5.00476 -2.41952,7.11642 -1.6138,1.7833 -3.809,3.03713 -6.0296,3.44391 -1.9843,0.36349 -2.58575,0.34473 -4.37676,-0.13656 z"
           id="path23"
           sodipodi:nodetypes="ssssssssssssssssssssssssssssssssssssssssssssssssssssssssssssssssss" /><path
           style="fill:#db9261"
           d="m 290.74452,230.15143 c 1.49933,-0.0472 3.88058,-0.0471 5.29167,4.2e-4 1.41109,0.0475 0.18436,0.0861 -2.72605,0.0859 -2.91042,-2.4e-4 -4.06495,-0.0391 -2.56562,-0.0863 z m -7.15308,-0.25883 c 0.47555,-0.0589 1.18992,-0.0577 1.5875,0.003 0.39757,0.0604 0.008,0.10855 -0.86464,0.10706 -0.87312,-0.001 -1.19841,-0.0509 -0.72286,-0.10976 z m 17.99166,0 c 0.47555,-0.0589 1.18993,-0.0577 1.5875,0.003 0.39758,0.0604 0.009,0.10855 -0.86463,0.10706 -0.87312,-0.001 -1.19841,-0.0509 -0.72287,-0.10976 z m -21.43598,-0.25956 c 0.32742,-0.0631 0.8632,-0.0631 1.19062,0 0.32742,0.0631 0.0595,0.11466 -0.59531,0.11466 -0.65485,0 -0.92274,-0.0516 -0.59531,-0.11466 z m 25.53593,-0.003 c 0.40218,-0.0608 0.99749,-0.0592 1.32291,0.004 0.32542,0.0628 -0.004,0.11256 -0.73124,0.11057 -0.7276,-0.002 -0.99386,-0.0534 -0.59167,-0.11419 z m -28.31406,-0.2571 c 0.25466,-0.0666 0.67138,-0.0666 0.92604,0 0.25466,0.0665 0.0463,0.121 -0.46302,0.121 -0.50932,0 -0.71768,-0.0545 -0.46302,-0.121 z m 31.35621,-0.005 c 0.32912,-0.0633 0.80537,-0.0609 1.05833,0.005 0.25297,0.0662 -0.0163,0.118 -0.59839,0.11507 -0.58209,-0.003 -0.78906,-0.0571 -0.45994,-0.12041 z m -33.47288,-0.25984 c 0.25467,-0.0666 0.67138,-0.0666 0.92605,0 0.25466,0.0665 0.0463,0.121 -0.46303,0.121 -0.50932,0 -0.71768,-0.0545 -0.46302,-0.121 z m 35.98837,-9.7e-4 c 0.25743,-0.0671 0.61462,-0.0627 0.79375,0.01 0.17914,0.0725 -0.0315,0.12736 -0.46805,0.12197 -0.43656,-0.005 -0.58313,-0.0647 -0.3257,-0.13178 z m -37.83541,-0.26458 c 0.25743,-0.0671 0.61461,-0.0627 0.79375,0.01 0.17913,0.0725 -0.0315,0.12737 -0.46806,0.12197 -0.43656,-0.005 -0.58313,-0.0647 -0.32569,-0.13177 z m 39.68246,9.7e-4 c 0.25466,-0.0665 0.67138,-0.0665 0.92604,0 0.25467,0.0666 0.0463,0.121 -0.46302,0.121 -0.50932,0 -0.71768,-0.0545 -0.46302,-0.121 z m -41.53455,-0.26555 c 0.25743,-0.0671 0.61462,-0.0627 0.79375,0.01 0.17913,0.0725 -0.0315,0.12736 -0.46805,0.12197 -0.43657,-0.005 -0.58313,-0.0647 -0.3257,-0.13177 z m 43.65625,0 c 0.25744,-0.0671 0.61462,-0.0627 0.79375,0.01 0.17914,0.0725 -0.0315,0.12736 -0.46805,0.12197 -0.43656,-0.005 -0.58313,-0.0647 -0.3257,-0.13177 z m -45.38107,-0.25646 c 0.1819,-0.0734 0.47955,-0.0734 0.66145,0 0.1819,0.0734 0.0331,0.13345 -0.33073,0.13345 -0.3638,0 -0.51263,-0.0601 -0.33072,-0.13345 z m 47.09583,0 c 0.1819,-0.0734 0.47956,-0.0734 0.66146,0 0.1819,0.0734 0.0331,0.13345 -0.33073,0.13345 -0.3638,0 -0.51263,-0.0601 -0.33073,-0.13345 z m -48.68333,-0.26458 c 0.1819,-0.0734 0.47955,-0.0734 0.66145,0 0.1819,0.0734 0.0331,0.13345 -0.33073,0.13345 -0.3638,0 -0.51263,-0.0601 -0.33072,-0.13345 z m 50.40816,-0.008 c 0.25743,-0.0671 0.61462,-0.0627 0.79375,0.01 0.17913,0.0725 -0.0315,0.12737 -0.46806,0.12197 -0.43656,-0.005 -0.58312,-0.0647 -0.32569,-0.13177 z m -51.99566,-0.25646 c 0.1819,-0.0734 0.47955,-0.0734 0.66145,0 0.1819,0.0734 0.0331,0.13346 -0.33073,0.13346 -0.3638,0 -0.51263,-0.0601 -0.33072,-0.13346 z m 53.44583,0 c 0.1819,-0.0734 0.47956,-0.0734 0.66146,0 0.1819,0.0734 0.0331,0.13346 -0.33073,0.13346 -0.3638,0 -0.51263,-0.0601 -0.33073,-0.13346 z m -55.03334,-0.26458 c 0.18191,-0.0734 0.47956,-0.0734 0.66146,0 0.1819,0.0734 0.0331,0.13345 -0.33073,0.13345 -0.3638,0 -0.51263,-0.06 -0.33073,-0.13345 z m 56.62084,0 c 0.1819,-0.0734 0.47956,-0.0734 0.66146,0 0.1819,0.0734 0.0331,0.13345 -0.33073,0.13345 -0.3638,0 -0.51263,-0.06 -0.33073,-0.13345 z m -58.20834,-0.26458 c 0.18191,-0.0734 0.47956,-0.0734 0.66146,0 0.1819,0.0734 0.0331,0.13345 -0.33073,0.13345 -0.3638,0 -0.51263,-0.06 -0.33073,-0.13345 z m 59.53126,0 c 0.1819,-0.0734 0.47955,-0.0734 0.66146,0 0.1819,0.0734 0.0331,0.13345 -0.33073,0.13345 -0.36381,0 -0.51263,-0.06 -0.33073,-0.13345 z m -60.57305,-0.2701 c 0.19099,-0.0764 0.4192,-0.067 0.50712,0.0209 0.0879,0.0879 -0.0684,0.15045 -0.34727,0.13896 -0.30822,-0.0127 -0.37092,-0.0754 -0.15985,-0.15985 z m 61.89596,0.006 c 0.18191,-0.0734 0.47956,-0.0734 0.66146,0 0.1819,0.0734 0.0331,0.13346 -0.33073,0.13346 -0.3638,0 -0.51263,-0.0601 -0.33073,-0.13346 z m -63.21888,-0.27009 c 0.191,-0.0764 0.4192,-0.067 0.50712,0.0209 0.0879,0.0879 -0.0684,0.15045 -0.34727,0.13896 -0.30822,-0.0127 -0.37092,-0.0754 -0.15985,-0.15985 z m 64.55834,0 c 0.19099,-0.0764 0.4192,-0.067 0.50712,0.0209 0.0879,0.0879 -0.0684,0.15045 -0.34727,0.13896 -0.30822,-0.0127 -0.37092,-0.0754 -0.15985,-0.15985 z m 1.32291,-0.26459 c 0.191,-0.0764 0.4192,-0.067 0.50712,0.0209 0.0879,0.0879 -0.0684,0.15046 -0.34726,0.13897 -0.30823,-0.0127 -0.37092,-0.0754 -0.15986,-0.15986 z m -68.2625,-0.26458 c 0.191,-0.0764 0.4192,-0.067 0.50712,0.0209 0.0879,0.0879 -0.0684,0.15045 -0.34727,0.13896 -0.30822,-0.0127 -0.37092,-0.0754 -0.15985,-0.15985 z m 69.32084,0 c 0.19099,-0.0764 0.4192,-0.067 0.50712,0.0209 0.0879,0.0879 -0.0684,0.15045 -0.34727,0.13896 -0.30822,-0.0127 -0.37092,-0.0754 -0.15985,-0.15985 z m -70.37917,-0.26458 c 0.19099,-0.0764 0.4192,-0.067 0.50712,0.0209 0.0879,0.0879 -0.0684,0.15045 -0.34727,0.13896 -0.30822,-0.0127 -0.37092,-0.0754 -0.15985,-0.15985 z m -1.05834,-0.26459 c 0.191,-0.0764 0.4192,-0.067 0.50712,0.0209 0.0879,0.0879 -0.0684,0.15046 -0.34726,0.13897 -0.30823,-0.0127 -0.37092,-0.0754 -0.15986,-0.15986 z m -1.05833,-0.26458 c 0.191,-0.0764 0.4192,-0.067 0.50712,0.0209 0.0879,0.0879 -0.0684,0.15045 -0.34727,0.13896 -0.30822,-0.0127 -0.37092,-0.0754 -0.15985,-0.15985 z m 75.67084,0 c 0.19099,-0.0764 0.4192,-0.067 0.50712,0.0209 0.0879,0.0879 -0.0684,0.15045 -0.34727,0.13896 -0.30822,-0.0127 -0.37092,-0.0754 -0.15985,-0.15985 z m 1.85208,-0.52917 c 0.191,-0.0764 0.4192,-0.067 0.50712,0.0209 0.0879,0.0879 -0.0684,0.15046 -0.34727,0.13897 -0.30822,-0.0127 -0.37092,-0.0754 -0.15985,-0.15986 z m -82.02084,-0.79375 c 0.191,-0.0764 0.4192,-0.067 0.50712,0.0209 0.0879,0.0879 -0.0683,0.15046 -0.34726,0.13897 -0.30823,-0.0127 -0.37092,-0.0754 -0.15986,-0.15986 z m 84.66667,0 c 0.191,-0.0764 0.4192,-0.067 0.50712,0.0209 0.0879,0.0879 -0.0684,0.15046 -0.34726,0.13897 -0.30823,-0.0127 -0.37092,-0.0754 -0.15986,-0.15986 z m -88.10625,-1.05833 c 0.191,-0.0764 0.4192,-0.067 0.50712,0.0209 0.0879,0.0879 -0.0683,0.15045 -0.34727,0.13896 -0.30822,-0.0127 -0.37092,-0.0754 -0.15985,-0.15985 z m 97.1517,-1.93592 c 0.21828,-0.14107 0.51593,-0.25649 0.66146,-0.25649 0.14552,0 0.086,0.11542 -0.1323,0.25649 -0.21828,0.14106 -0.51593,0.25648 -0.66145,0.25648 -0.14553,0 -0.086,-0.11542 0.13229,-0.25648 z m -104.51042,-0.52917 c -0.21828,-0.14107 -0.27782,-0.25648 -0.1323,-0.25648 0.14553,0 0.44318,0.11541 0.66146,0.25648 0.21828,0.14106 0.27782,0.25648 0.13229,0.25648 -0.14552,0 -0.44317,-0.11542 -0.66145,-0.25648 z m 106.62708,-0.26458 c 0.21829,-0.14107 0.51594,-0.25649 0.66146,-0.25649 0.14552,0 0.086,0.11542 -0.13229,0.25649 -0.21828,0.14106 -0.51594,0.25648 -0.66146,0.25648 -0.14552,0 -0.086,-0.11542 0.13229,-0.25648 z m 2.64584,-1.05834 c 0.21828,-0.14106 0.51593,-0.25648 0.66146,-0.25648 0.14552,0 0.086,0.11542 -0.1323,0.25648 -0.21828,0.14107 -0.51593,0.25648 -0.66145,0.25648 -0.14553,0 -0.086,-0.11541 0.13229,-0.25648 z m -114.56459,-0.79375 c -0.21828,-0.14106 -0.27781,-0.25648 -0.13229,-0.25648 0.14552,0 0.44318,0.11542 0.66146,0.25648 0.21828,0.14107 0.27781,0.25648 0.13229,0.25648 -0.14552,0 -0.44318,-0.11541 -0.66146,-0.25648 z m 116.41667,0 c 0.21828,-0.14106 0.51594,-0.25648 0.66146,-0.25648 0.14552,0 0.086,0.11542 -0.13229,0.25648 -0.21828,0.14107 -0.51594,0.25648 -0.66146,0.25648 -0.14552,0 -0.086,-0.11541 0.13229,-0.25648 z m 1.32292,-0.52916 c 0.21828,-0.14107 0.51594,-0.25649 0.66146,-0.25649 0.14552,0 0.086,0.11542 -0.1323,0.25649 -0.21828,0.14106 -0.51593,0.25648 -0.66145,0.25648 -0.14552,0 -0.086,-0.11542 0.13229,-0.25648 z m -119.85626,-0.39688 c -0.3638,-0.20797 -0.54239,-0.37812 -0.39687,-0.37812 0.14552,0 0.56224,0.17015 0.92604,0.37812 0.3638,0.20797 0.5424,0.37812 0.39687,0.37812 -0.14552,0 -0.56224,-0.17015 -0.92604,-0.37812 z M 354.84781,217.019 c 0.26936,-0.24745 3.9467,-2.00823 3.9467,-1.88975 0,0.14777 -3.58643,1.99103 -3.87395,1.99103 -0.10064,0 -0.13338,-0.0456 -0.0728,-0.10128 z m -124.37622,-0.69247 c -0.23846,-0.15411 -0.2711,-0.2581 -0.0818,-0.26054 0.17331,-0.002 0.3887,0.11501 0.47864,0.26054 0.20301,0.32848 0.11142,0.32848 -0.39688,0 z m -5.09323,-2.53094 c -0.69122,-0.35981 -1.25677,-0.71346 -1.25677,-0.78588 0,-0.0724 0.59532,0.16999 1.32292,0.53869 0.7276,0.36871 1.32292,0.7279 1.32292,0.79821 0,0.17501 0.0238,0.18445 -1.38907,-0.55102 z m 137.3849,-0.76277 c 0,-0.0728 0.35719,-0.317 0.79375,-0.54275 0.43657,-0.22576 0.79375,-0.35094 0.79375,-0.27818 0,0.0728 -0.35718,0.317 -0.79375,0.54276 -0.43656,0.22576 -0.79375,0.35093 -0.79375,0.27817 z m -140.29531,-0.82638 c -0.98913,-0.53661 -0.92892,-0.76011 0.0661,-0.24554 0.43656,0.22576 0.79375,0.46694 0.79375,0.53596 0,0.17026 -0.0284,0.16066 -0.85989,-0.29042 z m 143.20573,-0.75609 c 0,-0.0728 0.23813,-0.25973 0.52917,-0.41549 0.29104,-0.15576 0.52916,-0.22367 0.52916,-0.15091 0,0.0728 -0.23812,0.25973 -0.52916,0.41549 -0.29104,0.15576 -0.52917,0.22367 -0.52917,0.15091 z M 220.0867,210.88301 c -0.98913,-0.53661 -0.92892,-0.76011 0.0661,-0.24554 0.43656,0.22576 0.79375,0.46694 0.79375,0.53596 0,0.17026 -0.0284,0.16066 -0.85989,-0.29042 z m 146.9099,-0.22692 c 0,-0.0728 0.23812,-0.25973 0.52916,-0.41549 0.29105,-0.15576 0.52917,-0.22367 0.52917,-0.15091 0,0.0728 -0.23812,0.25973 -0.52917,0.41549 -0.29104,0.15576 -0.52916,0.22367 -0.52916,0.15091 z m -149.37288,-1.35613 c -0.49319,-0.39513 -0.48994,-0.40001 0.0817,-0.12298 0.32742,0.15867 0.59531,0.34383 0.59531,0.41147 0,0.20246 -0.13722,0.144 -0.67704,-0.28849 z m 151.22496,0.2978 c 0,-0.0728 0.23813,-0.25973 0.52917,-0.41549 0.29104,-0.15577 0.52916,-0.22367 0.52916,-0.15091 0,0.0728 -0.23812,0.25973 -0.52916,0.41549 -0.29104,0.15576 -0.52917,0.22367 -0.52917,0.15091 z m -153.00004,-1.35107 c -0.54311,-0.36905 -0.98746,-0.72793 -0.98746,-0.79751 0,-0.0696 0.47625,0.18866 1.05833,0.57387 0.92423,0.61162 1.2366,0.89463 0.98746,0.89463 -0.039,0 -0.51523,-0.30195 -1.05833,-0.67099 z m 154.32296,0.59112 c 0,-0.0604 0.68461,-0.54924 1.52135,-1.08634 0.83675,-0.53709 1.19576,-0.69976 0.79781,-0.36148 -0.78561,0.66781 -2.31916,1.62519 -2.31916,1.44782 z m -157.2948,-2.72143 -0.79375,-0.68201 0.8599,0.56905 c 0.47294,0.31297 0.85989,0.62047 0.85989,0.68332 0,0.19805 -0.11204,0.12905 -0.92604,-0.57036 z m 161.26355,0.0592 c 0,-0.0728 0.35719,-0.38663 0.79375,-0.69749 0.43656,-0.31086 0.79375,-0.50567 0.79375,-0.43291 0,0.0728 -0.35719,0.38663 -0.79375,0.69749 -0.43656,0.31086 -0.79375,0.50567 -0.79375,0.43291 z M 210.59409,204.4859 c -0.3291,-0.41964 -0.31975,-0.429 0.0999,-0.0999 0.44073,0.34564 0.58089,0.56291 0.36312,0.56291 -0.0549,0 -0.2633,-0.20836 -0.46302,-0.46302 z m 165.39834,0.36313 c 0,-0.0549 0.20836,-0.2633 0.46302,-0.46302 0.41965,-0.32911 0.429,-0.31975 0.0999,0.0999 -0.34565,0.44073 -0.56292,0.58089 -0.56292,0.36313 z M 208.90805,203.3403 c -1.56965,-1.18673 -1.78092,-1.52155 -0.30896,-0.48964 1.11184,0.77945 1.71713,1.32129 1.44905,1.29715 -0.045,-0.004 -0.55801,-0.36743 -1.14009,-0.80751 z m 168.14272,0.71498 c 0,-0.055 0.20835,-0.2633 0.46302,-0.46302 0.41964,-0.32911 0.429,-0.31975 0.0999,0.0999 -0.34564,0.44073 -0.56291,0.58089 -0.56291,0.36313 z m 1.85208,-1.32292 c 0,-0.0549 0.20836,-0.2633 0.46302,-0.46302 0.41964,-0.32911 0.429,-0.31975 0.0999,0.0999 -0.34564,0.44073 -0.56291,0.58089 -0.56291,0.36313 z m -172.40119,-1.28917 -0.50403,-0.59531 0.59532,0.50403 c 0.32742,0.27721 0.59531,0.5451 0.59531,0.59531 0,0.21173 -0.21294,0.0554 -0.6866,-0.50403 z m 173.8564,0.0662 c 0.26339,-0.29104 0.53842,-0.52917 0.61118,-0.52917 0.0728,0 -0.0832,0.23813 -0.3466,0.52917 -0.26339,0.29104 -0.53842,0.52917 -0.61118,0.52917 -0.0728,0 0.0832,-0.23813 0.3466,-0.52917 z m -175.17932,-1.12448 -0.50402,-0.59531 0.59531,0.50402 c 0.55945,0.47367 0.71576,0.6866 0.50403,0.6866 -0.0502,0 -0.3181,-0.26789 -0.59532,-0.59531 z m 176.63453,-0.0661 c 0.34177,-0.3638 0.68093,-0.66145 0.75369,-0.66145 0.0728,0 -0.14734,0.29765 -0.48911,0.66145 -0.34178,0.36381 -0.68094,0.66146 -0.7537,0.66146 -0.0728,0 0.14734,-0.29765 0.48912,-0.66146 z m -178.21353,-1.25677 -0.77711,-0.85989 0.8599,0.7771 c 0.47294,0.42741 0.8599,0.81436 0.8599,0.8599 0,0.2044 -0.21832,0.0244 -0.94269,-0.77711 z m 179.66873,0.0661 c 0.26339,-0.29104 0.53842,-0.52917 0.61118,-0.52917 0.0728,0 -0.0832,0.23813 -0.34659,0.52917 -0.26339,0.29104 -0.53842,0.52917 -0.61118,0.52917 -0.0728,0 0.0832,-0.23813 0.34659,-0.52917 z m 1.7198,-1.45521 c 0.49365,-0.50932 0.95708,-0.92604 1.02984,-0.92604 0.0728,0 -0.27161,0.41672 -0.76526,0.92604 -0.49366,0.50932 -0.95709,0.92604 -1.02985,0.92604 -0.0728,0 0.27161,-0.41672 0.76527,-0.92604 z m -183.24061,-0.19844 -0.77711,-0.85989 0.8599,0.7771 c 0.47294,0.42741 0.85989,0.81436 0.85989,0.8599 0,0.2044 -0.21831,0.0244 -0.94268,-0.77711 z m -1.98198,-1.71979 -0.9118,-0.99219 0.99219,0.9118 c 0.92351,0.84868 1.11384,1.07258 0.9118,1.07258 -0.0442,0 -0.4907,-0.44649 -0.99219,-0.99219 z m 187.73613,-0.33073 c 0.71666,-0.7276 1.36255,-1.32291 1.43531,-1.32291 0.0728,0 -0.45407,0.59531 -1.17073,1.32291 -0.71666,0.72761 -1.36256,1.32292 -1.43532,1.32292 -0.0728,0 0.45407,-0.59531 1.17074,-1.32292 z m -190.89689,-2.51354 c -1.08412,-1.09141 -1.9116,-1.98437 -1.83883,-1.98437 0.0728,0 1.0193,0.89296 2.10342,1.98437 1.08412,1.09141 1.9116,1.98438 1.83884,1.98438 -0.0728,0 -1.0193,-0.89297 -2.10343,-1.98438 z m 193.41043,0.26458 c 0.49365,-0.50932 0.95709,-0.92604 1.02985,-0.92604 0.0728,0 -0.27161,0.41672 -0.76527,0.92604 -0.49365,0.50933 -0.95708,0.92605 -1.02984,0.92605 -0.0728,0 0.2716,-0.41672 0.76526,-0.92605 z m 3.04271,-3.30729 c 1.01084,-1.01864 1.89742,-1.85208 1.97018,-1.85208 0.0728,0 -0.69476,0.83344 -1.7056,1.85208 -1.01084,1.01865 -1.89742,1.85209 -1.97018,1.85209 -0.0728,0 0.69476,-0.83344 1.7056,-1.85209 z m -200.29788,-1.12448 -1.57921,-1.65364 1.65364,1.57921 c 1.5361,1.46696 1.77472,1.72808 1.57922,1.72808 -0.0409,0 -0.78508,-0.74414 -1.65365,-1.65365 z m 203.32953,-2.11666 c 1.09642,-1.16819 1.33397,-1.37824 1.33397,-1.17957 0,0.0425 -0.56554,0.60801 -1.25677,1.25677 l -1.25677,1.17957 z m -205.71914,-0.52917 -0.7771,-0.8599 0.85989,0.77711 c 0.47294,0.42741 0.8599,0.81436 0.8599,0.8599 0,0.2044 -0.21832,0.0244 -0.94269,-0.77711 z m -1.33141,-1.5875 -0.50403,-0.59531 0.59532,0.50403 c 0.55944,0.47366 0.71576,0.68659 0.50402,0.68659 -0.0502,0 -0.31809,-0.26789 -0.59531,-0.59531 z m 208.7814,0.0661 c 0.26339,-0.29105 0.53842,-0.52917 0.61118,-0.52917 0.0728,0 -0.0832,0.23812 -0.3466,0.52917 -0.26339,0.29104 -0.53842,0.52916 -0.61118,0.52916 -0.0728,0 0.0832,-0.23812 0.3466,-0.52916 z m -209.83973,-1.38907 -0.50403,-0.59531 0.59531,0.50403 c 0.55945,0.47366 0.71576,0.6866 0.50403,0.6866 -0.0502,0 -0.3181,-0.2679 -0.59531,-0.59532 z m 211.33193,-0.60726 c 0.47499,-0.66141 1.04137,-1.34602 1.25861,-1.52135 0.21724,-0.17533 -0.11876,0.36583 -0.74668,1.20257 -1.35109,1.80043 -1.75788,2.05374 -0.51193,0.31878 z m -212.26658,-0.58336 c -0.32911,-0.41965 -0.31975,-0.429 0.0999,-0.0999 0.25466,0.19972 0.46302,0.40808 0.46302,0.46302 0,0.21777 -0.21727,0.0776 -0.56291,-0.36312 z m -0.79375,-1.05834 c -0.32911,-0.41964 -0.31975,-0.429 0.0999,-0.0999 0.44073,0.34564 0.58089,0.56292 0.36313,0.56292 -0.0549,0 -0.26331,-0.20836 -0.46302,-0.46303 z m 214.61084,-0.43062 c 0,-0.0549 0.20836,-0.2633 0.46302,-0.46302 0.41964,-0.32911 0.429,-0.31975 0.0999,0.0999 -0.34564,0.44073 -0.56291,0.58089 -0.56291,0.36313 z m 2.38824,-3.28878 c 0.31895,-0.48132 0.53715,-0.91266 0.48489,-0.95853 -0.0523,-0.0459 -0.51173,-0.29366 -1.02105,-0.55063 -0.50932,-0.25697 -1.90502,-1.05434 -3.10156,-1.77193 -4.83839,-2.90169 -15.05681,-6.94865 -22.82761,-9.04077 -6.19218,-1.66711 -15.9326,-2.92499 -24.87083,-3.21182 -7.89373,-0.25331 -10.36319,-0.6047 -15.21354,-2.1648 -5.66352,-1.82166 -10.37555,-4.72663 -14.69253,-9.05794 -6.70364,-6.7259 -10.16692,-14.73816 -10.81507,-25.02053 -0.12114,-1.92168 -0.0958,-9.39376 0.0574,-16.93184 0.46736,-22.994529 0.10609,-25.163485 -5.83629,-35.0391 -4.59674,-7.639292 -7.76831,-14.59267 -9.43323,-20.681519 -0.69465,-2.540416 -1.91957,-8.88413 -2.15811,-11.176585 -0.0883,-0.848996 -0.20814,-1.49611 -0.26622,-1.43803 -0.0581,0.05808 -0.21831,0.752713 -0.35606,1.543629 -0.21909,1.257945 -0.23203,1.156392 -0.10331,-0.810927 0.15096,-2.307197 0.44342,-3.308323 0.88647,-3.034504 0.13822,0.08542 0.25131,0.758088 0.25131,1.494809 0,1.956815 0.70763,6.417663 1.71512,10.811909 1.76006,7.676688 5.29517,15.657492 10.82381,24.435647 2.43422,3.864959 3.47978,6.369038 4.43006,10.609846 0.66858,2.983661 0.89306,13.336471 0.57371,26.458335 -0.2741,11.26262 -0.0938,15.66083 0.82442,20.10833 2.32314,11.25259 9.30121,20.19635 19.86517,25.46107 4.8802,2.43212 11.09493,3.76865 17.54521,3.77325 5.93102,0.004 13.72667,0.75214 20.95167,2.01009 9.29304,1.61801 21.35794,6.00392 29.52557,10.7333 1.4687,0.85044 2.80224,1.54625 2.96342,1.54625 0.16117,0 0.4091,-0.20737 0.55093,-0.46082 0.14184,-0.25345 0.32248,-0.39622 0.40143,-0.31727 0.26018,0.26017 -0.43027,2.03868 -1.08876,2.80452 l -0.64632,0.75169 z M 183.50089,176.8915 c -0.2061,-0.33347 0.29014,-0.97497 1.04373,-1.34928 0.33423,-0.166 0.24794,-0.0214 -0.21935,0.36753 -0.44946,0.37412 -0.69091,0.76961 -0.5797,0.94955 0.10482,0.1696 0.13105,0.30837 0.0583,0.30837 -0.0728,0 -0.2091,-0.12428 -0.30297,-0.27617 z m 1.72695,-1.68958 c 0,-0.0728 0.23813,-0.25974 0.52917,-0.4155 0.29104,-0.15576 0.52916,-0.22367 0.52916,-0.15091 0,0.0728 -0.23812,0.25973 -0.52916,0.4155 -0.29104,0.15576 -0.52917,0.22367 -0.52917,0.15091 z m 2.11667,-1.32795 c 0,-0.0728 0.35719,-0.317 0.79375,-0.54276 0.43656,-0.22575 0.79375,-0.35093 0.79375,-0.27817 0,0.0728 -0.35719,0.317 -0.79375,0.54276 -0.43656,0.22575 -0.79375,0.35093 -0.79375,0.27817 z m 1.85208,-1.06941 c 0,-0.18104 1.62002,-0.98423 1.74106,-0.86319 0.0574,0.0574 -0.31084,0.30239 -0.81834,0.54439 -0.5075,0.24201 -0.92272,0.38547 -0.92272,0.3188 z m 103.27415,-0.95495 c -1.31902,-0.38137 -2.80916,-2.34891 -4.67277,-6.16983 -1.83262,-3.75737 -1.9713,-3.9127 -4.84532,-5.4269 -4.05737,-2.13766 -5.01955,-4.65285 -2.2665,-5.92476 1.20524,-0.55682 1.60353,-0.57875 11.91961,-0.65615 11.51037,-0.0864 12.96951,0.0339 14.33306,1.18124 0.9176,0.77211 1.02596,1.71246 0.32056,2.78203 -0.61237,0.92852 -1.41467,1.54271 -3.54437,2.71334 -0.96443,0.53012 -2.07139,1.28172 -2.4599,1.67024 -0.38851,0.38851 -1.53367,2.33679 -2.54479,4.32952 -1.79733,3.54217 -3.34939,5.52767 -4.32097,5.52767 -0.20596,0 -0.53304,0.0487 -0.72684,0.10814 -0.19381,0.0595 -0.7301,-0.001 -1.19177,-0.13454 z m -98.24707,-1.5611 c 0.21829,-0.14107 0.51594,-0.25648 0.66146,-0.25648 0.14552,0 0.086,0.11541 -0.13229,0.25648 -0.21828,0.14106 -0.51594,0.25648 -0.66146,0.25648 -0.14552,0 -0.086,-0.11542 0.13229,-0.25648 z m 1.85209,-0.79375 c 0.21828,-0.14107 0.51594,-0.25648 0.66146,-0.25648 0.14552,0 0.086,0.11541 -0.1323,0.25648 -0.21828,0.14106 -0.51593,0.25648 -0.66145,0.25648 -0.14552,0 -0.086,-0.11542 0.13229,-0.25648 z m 2.64583,-1.05834 c 0.21828,-0.14106 0.51594,-0.25648 0.66146,-0.25648 0.14552,0 0.086,0.11542 -0.13229,0.25648 -0.21828,0.14107 -0.51594,0.25648 -0.66146,0.25648 -0.14552,0 -0.086,-0.11541 0.13229,-0.25648 z m 2.91042,-1.05833 c 0.21828,-0.14107 0.57547,-0.24994 0.79375,-0.24194 0.26169,0.01 0.21662,0.092 -0.13229,0.24194 -0.72737,0.31256 -1.14511,0.31256 -0.66146,0 z m 1.98437,-0.67101 c 0.43657,-0.1999 0.97235,-0.35977 1.19063,-0.35526 0.21828,0.005 -0.0198,0.16867 -0.52917,0.36481 -1.20801,0.4652 -1.68329,0.45834 -0.66146,-0.01 z m 4.31602,-1.36181 c 0.191,-0.0764 0.4192,-0.067 0.50712,0.0209 0.0879,0.0879 -0.0683,0.15046 -0.34727,0.13897 -0.30822,-0.0127 -0.37092,-0.0754 -0.15985,-0.15985 z m 1.05833,-0.26459 c 0.191,-0.0764 0.4192,-0.067 0.50712,0.0209 0.0879,0.0879 -0.0684,0.15045 -0.34726,0.13896 -0.30823,-0.0127 -0.37092,-0.0754 -0.15986,-0.15985 z m 1.85209,-0.52916 c 0.19099,-0.0764 0.4192,-0.067 0.50711,0.0209 0.0879,0.0879 -0.0684,0.15046 -0.34726,0.13897 -0.30823,-0.0127 -0.37092,-0.0754 -0.15985,-0.15985 z m 1.04179,-0.25908 c 0.1819,-0.0734 0.47956,-0.0734 0.66146,0 0.1819,0.0734 0.0331,0.13346 -0.33073,0.13346 -0.3638,0 -0.51263,-0.0601 -0.33073,-0.13346 z m 1.33946,-0.27009 c 0.19099,-0.0764 0.4192,-0.067 0.50711,0.0209 0.0879,0.0879 -0.0683,0.15045 -0.34726,0.13896 -0.30823,-0.0127 -0.37092,-0.0754 -0.15985,-0.15985 z m 1.04179,-0.25907 c 0.1819,-0.0734 0.47956,-0.0734 0.66146,0 0.1819,0.0734 0.0331,0.13345 -0.33073,0.13345 -0.3638,0 -0.51263,-0.06 -0.33073,-0.13345 z m 1.32292,-0.26459 c 0.1819,-0.0734 0.47956,-0.0734 0.66146,0 0.1819,0.0734 0.0331,0.13346 -0.33073,0.13346 -0.3638,0 -0.51263,-0.0601 -0.33073,-0.13346 z m 1.5875,-0.26458 c 0.1819,-0.0734 0.47956,-0.0734 0.66146,0 0.1819,0.0734 0.0331,0.13345 -0.33073,0.13345 -0.3638,0 -0.51263,-0.06 -0.33073,-0.13345 z m 1.5875,-0.26458 c 0.1819,-0.0734 0.47956,-0.0734 0.66146,0 0.1819,0.0734 0.0331,0.13345 -0.33073,0.13345 -0.3638,0 -0.51263,-0.0601 -0.33073,-0.13345 z m 1.5875,-0.26459 c 0.1819,-0.0734 0.47956,-0.0734 0.66146,0 0.1819,0.0734 0.0331,0.13346 -0.33073,0.13346 -0.3638,0 -0.51263,-0.0601 -0.33073,-0.13346 z m 1.71979,-0.27173 c 0.25466,-0.0666 0.67138,-0.0666 0.92604,0 0.25466,0.0666 0.0463,0.121 -0.46302,0.121 -0.50932,0 -0.71768,-0.0544 -0.46302,-0.121 z m 2.25204,-0.26933 c 0.32912,-0.0633 0.80537,-0.0609 1.05834,0.005 0.25296,0.0662 -0.0163,0.118 -0.5984,0.11506 -0.58208,-0.003 -0.78905,-0.0571 -0.45994,-0.1204 z m 2.77868,-0.26732 c 0.40219,-0.0608 0.9975,-0.0592 1.32292,0.004 0.32542,0.0628 -0.004,0.11256 -0.73124,0.11058 -0.72761,-0.002 -0.99386,-0.0534 -0.59168,-0.11419 z m 3.83282,-0.26845 c 0.61847,-0.0557 1.6305,-0.0557 2.24896,0 0.61847,0.0557 0.11245,0.10128 -1.12448,0.10128 -1.23692,0 -1.74294,-0.0456 -1.12448,-0.10128 z m 8.86718,-0.26071 c 0.40219,-0.0608 0.9975,-0.0592 1.32292,0.004 0.32542,0.0628 -0.004,0.11256 -0.73124,0.11057 -0.72761,-0.002 -0.99386,-0.0534 -0.59168,-0.11418 z m 2.77758,-0.26186 c 0.32911,-0.0633 0.80536,-0.0609 1.05833,0.005 0.25296,0.0662 -0.0163,0.11801 -0.5984,0.11507 -0.58208,-0.003 -0.78905,-0.0571 -0.45993,-0.12041 z m 2.11358,-0.25268 c 0.1819,-0.0734 0.47955,-0.0734 0.66146,0 0.1819,0.0734 0.0331,0.13345 -0.33073,0.13345 -0.36381,0 -0.51263,-0.0601 -0.33073,-0.13345 z m 1.32291,-0.26458 c 0.18191,-0.0734 0.47956,-0.0734 0.66146,0 0.1819,0.0734 0.0331,0.13345 -0.33073,0.13345 -0.3638,0 -0.51263,-0.0601 -0.33073,-0.13345 z m 1.33946,-0.2701 c 0.19099,-0.0764 0.4192,-0.067 0.50712,0.0209 0.0879,0.0879 -0.0684,0.15045 -0.34727,0.13896 -0.30822,-0.0127 -0.37092,-0.0754 -0.15985,-0.15985 z m 1.05833,-0.26458 c 0.191,-0.0764 0.4192,-0.067 0.50712,0.0209 0.0879,0.0879 -0.0684,0.15045 -0.34727,0.13896 -0.30822,-0.0127 -0.37092,-0.0754 -0.15985,-0.15985 z m 2.43086,-0.7453 c 1.20801,-0.4652 1.6833,-0.45834 0.66146,0.01 -0.43656,0.1999 -0.97235,0.35977 -1.19063,0.35526 -0.21828,-0.005 0.0199,-0.16867 0.52917,-0.36481 z m 1.85208,-0.66146 c 0.21828,-0.14106 0.51594,-0.25648 0.66146,-0.25648 0.14552,0 0.086,0.11542 -0.13229,0.25648 -0.21828,0.14106 -0.51594,0.25648 -0.66146,0.25648 -0.14552,0 -0.086,-0.11542 0.13229,-0.25648 z m 2.64584,-1.17704 c 0,-0.0728 0.35718,-0.317 0.79375,-0.54275 0.43656,-0.22576 0.79375,-0.35094 0.79375,-0.27817 0,0.0728 -0.35719,0.317 -0.79375,0.54275 -0.43657,0.22576 -0.79375,0.35093 -0.79375,0.27817 z m 1.85208,-1.0533 c 0,-0.0728 0.23813,-0.25973 0.52917,-0.41549 0.29104,-0.15576 0.52916,-0.22367 0.52916,-0.15091 0,0.0728 -0.23812,0.25973 -0.52916,0.41549 -0.29104,0.15576 -0.52917,0.22367 -0.52917,0.15091 z m 2.24896,-1.37631 c 0.14552,-0.14178 0.97151,-0.78727 1.83553,-1.43442 0.86402,-0.64715 2.64193,-2.2482 3.9509,-3.55789 1.75961,-1.76057 2.01594,-1.96016 0.98343,-0.76572 -1.46909,1.69948 -4.78637,4.64622 -6.19998,5.50743 -0.45896,0.27961 -0.7154,0.39238 -0.56988,0.2506 z m 155.4636,-5.80811 c 0.0127,-0.30822 0.0754,-0.37092 0.15985,-0.15985 0.0764,0.191 0.067,0.4192 -0.0209,0.50712 -0.0879,0.0879 -0.15046,-0.0684 -0.13897,-0.34727 z m -146.99693,-2.22691 c 0.26339,-0.29104 0.53842,-0.52916 0.61118,-0.52916 0.0728,0 -0.0832,0.23812 -0.3466,0.52916 -0.26339,0.29104 -0.53842,0.52917 -0.61118,0.52917 -0.0728,0 0.0832,-0.23813 0.3466,-0.52917 z m 147.52449,-0.0221 c 0.0502,-0.97546 0.98868,-5.30367 0.9992,-4.60816 0.015,0.99256 -0.61711,4.58162 -0.84753,4.81204 -0.094,0.094 -0.16227,0.002 -0.15167,-0.20388 z m -146.21141,-1.76388 c 0.40789,-0.61847 0.79205,-1.12448 0.8537,-1.12448 0.19085,0 -0.82222,1.6103 -1.21959,1.93857 -0.20664,0.17071 -0.042,-0.19563 0.36589,-0.81409 z m 1.33275,-2.18282 c 0.22575,-0.43656 0.46999,-0.79375 0.54276,-0.79375 0.0728,0 -0.0524,0.35719 -0.27818,0.79375 -0.22575,0.43657 -0.46999,0.79375 -0.54275,0.79375 -0.0728,0 0.0524,-0.35718 0.27817,-0.79375 z m 146.10638,-3.70416 c 0.0814,-1.09141 0.23689,-2.52016 0.34545,-3.175 l 0.19739,-1.19063 0.0188,1.45521 c 0.0103,0.80036 -0.14513,2.22911 -0.34545,3.175 l -0.36423,1.71979 z m -144.63242,0.92604 c 0,-0.14552 0.17015,-0.56224 0.37812,-0.92604 0.20797,-0.36381 0.37813,-0.5424 0.37813,-0.39688 0,0.14552 -0.17016,0.56224 -0.37813,0.92604 -0.20797,0.3638 -0.37812,0.5424 -0.37812,0.39688 z m 0.7831,-1.85209 c 0,-0.14552 0.11542,-0.44317 0.25648,-0.66145 0.14107,-0.21828 0.25648,-0.27782 0.25648,-0.1323 0,0.14553 -0.11541,0.44318 -0.25648,0.66146 -0.14106,0.21828 -0.25648,0.27782 -0.25648,0.13229 z m 1.3357,-3.99079 c 0.0127,-0.30823 0.0754,-0.37092 0.15986,-0.15986 0.0764,0.191 0.067,0.4192 -0.0209,0.50712 -0.0879,0.0879 -0.15046,-0.0683 -0.13897,-0.34726 z m 143.03977,-6.19566 c -0.10958,-3.27422 -0.36689,-7.20124 -0.57181,-8.72671 -0.35146,-2.61637 -0.37001,-3.55948 -0.0486,-2.47188 0.36152,1.22334 0.68196,3.93705 0.82247,6.96525 0.0844,1.81901 0.20666,3.84308 0.27168,4.49792 0.065,0.65484 0.0299,2.20266 -0.0781,3.43958 -0.17401,1.99287 -0.21906,1.57108 -0.3956,-3.70416 z m -142.77518,5.13732 c 0.0127,-0.30822 0.0754,-0.37092 0.15985,-0.15985 0.0764,0.191 0.067,0.4192 -0.0209,0.50712 -0.0879,0.0879 -0.15045,-0.0684 -0.13896,-0.34727 z m 0.26458,-1.32291 c 0.0127,-0.30823 0.0754,-0.37092 0.15985,-0.15986 0.0764,0.191 0.067,0.4192 -0.0209,0.50712 -0.0879,0.0879 -0.15045,-0.0684 -0.13896,-0.34726 z m 0.28547,-1.16858 c 0,-0.3638 0.06,-0.51263 0.13345,-0.33073 0.0734,0.1819 0.0734,0.47956 0,0.66146 -0.0734,0.1819 -0.13345,0.0331 -0.13345,-0.33073 z m 66.79667,0.23487 c -2.85922,-0.67123 -6.22157,-3.45693 -7.46895,-6.188 -1.94752,-4.264 -1.04661,-9.27913 2.26069,-12.58465 3.38241,-3.38059 8.02495,-4.23278 12.32774,-2.2629 2.0621,0.94406 4.19858,3.06273 5.21424,5.17077 0.72109,1.49663 0.85327,2.09716 0.94748,4.30443 0.15831,3.70915 -0.46253,5.62525 -2.56674,7.92162 -2.86088,3.12215 -6.97024,4.51772 -10.71446,3.63873 z m 4.21973,-0.52246 c 2.2206,-0.40678 4.4158,-1.66061 6.0296,-3.44391 1.91095,-2.11166 2.41952,-3.6075 2.41952,-7.11642 0,-2.5929 -0.0569,-2.89436 -0.8531,-4.52149 -1.98164,-4.04966 -6.52733,-6.46821 -10.86752,-5.78212 -3.27848,0.51826 -6.31235,2.76029 -7.78431,5.75262 -0.82161,1.67023 -0.86799,1.92024 -0.86799,4.67911 0,2.60839 0.0745,3.07353 0.7091,4.4275 0.82192,1.7536 2.77195,3.94504 4.3153,4.8495 1.13803,0.66693 3.51779,1.39634 4.65045,1.42539 0.37345,0.01 1.38548,-0.11201 2.24895,-0.27018 z m -105.12328,0.10521 c 0.25466,-0.0666 0.67138,-0.0666 0.92604,0 0.25466,0.0666 0.0463,0.121 -0.46302,0.121 -0.50932,0 -0.71768,-0.0544 -0.46302,-0.121 z m 2.51663,-0.005 c 0.32911,-0.0633 0.80536,-0.0609 1.05833,0.005 0.25296,0.0662 -0.0163,0.118 -0.5984,0.11507 -0.58208,-0.003 -0.78905,-0.0571 -0.45993,-0.12041 z m -4.89788,-0.5995 c -0.61846,-0.28073 -1.12448,-0.56907 -1.12448,-0.64076 0,-0.0717 0.50602,0.0871 1.12448,0.35295 0.61846,0.26581 1.30307,0.54738 1.52135,0.62569 0.35278,0.12657 0.35278,0.14407 0,0.15747 -0.21828,0.008 -0.90289,-0.21461 -1.52135,-0.49535 z m 7.34219,0.12517 c 1.208,-0.4652 1.68329,-0.45833 0.66146,0.01 -0.43657,0.1999 -0.97235,0.35976 -1.19063,0.35525 -0.21828,-0.005 0.0198,-0.16867 0.52917,-0.36481 z m 29.42033,-0.79375 c 0.005,-0.43656 0.0647,-0.58312 0.13177,-0.32569 0.0671,0.25743 0.0627,0.61462 -0.01,0.79375 -0.0725,0.17913 -0.12736,-0.0315 -0.12197,-0.46806 z m -27.30367,-0.0523 c 0.36381,-0.25973 1.31631,-1.06452 2.11667,-1.78842 l 1.45521,-1.31618 -1.2568,1.32298 c -0.69124,0.72764 -1.64374,1.53243 -2.11667,1.78842 -0.82952,0.449 -0.83652,0.44876 -0.19841,-0.007 z m -12.96791,-1.86593 c -0.60865,-0.69122 -1.22065,-1.49489 -1.36001,-1.78594 -0.13935,-0.29104 0.0209,-0.17197 0.35617,0.26459 0.33525,0.43656 1.01052,1.24023 1.5006,1.78594 0.49008,0.5457 0.82779,0.99218 0.75047,0.99218 -0.0773,0 -0.63858,-0.56554 -1.24723,-1.25677 z m 40.54597,-0.0661 c 0,-0.50933 0.0544,-0.71769 0.121,-0.46302 0.0666,0.25466 0.0666,0.67138 0,0.92604 -0.0666,0.25466 -0.121,0.0463 -0.121,-0.46302 z m 0.31927,-8.99584 c 0,-4.00182 0.0368,-5.63893 0.0817,-3.63802 0.045,2.00091 0.045,5.27513 0,7.27604 -0.0449,2.00092 -0.0817,0.36381 -0.0817,-3.63802 z m -23.65589,6.21771 c 0,-0.14552 0.11542,-0.44318 0.25648,-0.66146 0.14106,-0.21828 0.25648,-0.27781 0.25648,-0.13229 0,0.14552 -0.11542,0.44318 -0.25648,0.66146 -0.14106,0.21828 -0.25648,0.27781 -0.25648,0.13229 z m -19.55668,-0.95202 c -0.16235,-0.4657 -0.28678,-0.9778 -0.27653,-1.13798 0.0102,-0.16019 0.18932,0.17461 0.39793,0.74398 0.2086,0.56938 0.33304,1.08148 0.27653,1.13799 -0.0565,0.0565 -0.23558,-0.27828 -0.39793,-0.74399 z m 20.09863,-0.92211 c 0.0127,-0.30822 0.0754,-0.37092 0.15985,-0.15985 0.0764,0.19099 0.067,0.4192 -0.0209,0.50712 -0.0879,0.0879 -0.15046,-0.0684 -0.13897,-0.34727 z m -20.60681,-1.56545 c 0.005,-0.43656 0.0647,-0.58313 0.13178,-0.3257 0.0671,0.25744 0.0627,0.61462 -0.01,0.79375 -0.0725,0.17914 -0.12736,-0.0315 -0.12197,-0.46805 z M 253.048,120.1497 c 0.001,-1.01864 0.049,-1.40294 0.10627,-0.85399 0.0573,0.54895 0.0563,1.38239 -0.002,1.85208 -0.0584,0.4697 -0.10532,0.0206 -0.10414,-0.99809 z m -20.93733,-1.32291 c 0.005,-0.43656 0.0647,-0.58313 0.13178,-0.3257 0.0671,0.25744 0.0627,0.61462 -0.01,0.79375 -0.0725,0.17914 -0.12736,-0.0315 -0.12197,-0.46805 z m 20.60681,-1.34497 c 0.0127,-0.30822 0.0754,-0.37092 0.15985,-0.15985 0.0764,0.191 0.067,0.4192 -0.0209,0.50712 -0.0879,0.0879 -0.15046,-0.0683 -0.13897,-0.34727 z m -0.9788,-2.23782 c -0.45031,-0.85866 -0.71439,-1.49671 -0.58684,-1.41788 0.27808,0.17187 1.61784,2.76682 1.49296,2.8917 -0.0481,0.0481 -0.45581,-0.61516 -0.90612,-1.47382 z m 164.09559,-1.06947 c -0.0994,-0.74945 -0.1275,-1.4159 -0.0624,-1.48098 0.0651,-0.0651 0.20231,0.49221 0.30495,1.23845 0.10263,0.74623 0.13072,1.41268 0.0624,1.48098 -0.0683,0.0683 -0.20553,-0.489 -0.30495,-1.23845 z m -182.21143,0.33102 c 0.14269,-0.26663 0.4673,-0.65358 0.72134,-0.8599 0.28582,-0.23212 0.22193,-0.0473 -0.1676,0.48478 -0.69492,0.94926 -0.95548,1.12577 -0.55374,0.37512 z m 15.76646,-2.34334 c -0.7276,-0.6693 -0.96573,-0.97326 -0.52916,-0.67547 0.74348,0.50715 2.21161,1.93035 1.96435,1.90423 -0.0617,-0.007 -0.70758,-0.55946 -1.43519,-1.22876 z m -14.2875,0.46914 c 0.51438,-0.59155 1.98438,-1.74089 1.98438,-1.55152 0,0.0519 -0.56555,0.55908 -1.25677,1.12718 -0.69123,0.56809 -1.01865,0.75905 -0.72761,0.42434 z m 180.33444,-0.97036 c 0.0127,-0.30822 0.0754,-0.37092 0.15985,-0.15985 0.0764,0.19099 0.067,0.4192 -0.0209,0.50712 -0.0879,0.0879 -0.15045,-0.0684 -0.13896,-0.34727 z M 237.35076,110.8918 c 0,-0.18104 1.62002,-0.98423 1.74106,-0.86319 0.0574,0.0574 -0.31085,0.30239 -0.81834,0.54439 -0.5075,0.24201 -0.92272,0.38547 -0.92272,0.3188 z m 9.78958,-0.26709 c -0.3638,-0.20797 -0.53538,-0.38235 -0.3813,-0.3875 0.15409,-0.005 0.51128,0.16543 0.79375,0.37908 0.65325,0.49409 0.44461,0.49835 -0.41245,0.008 z m 167.62051,-1.59447 c -0.25888,-1.09931 -0.41429,-2.05514 -0.34536,-2.12407 0.0689,-0.0689 0.33714,0.7741 0.59602,1.87341 0.25889,1.09932 0.4143,2.05515 0.34537,2.12408 -0.0689,0.0689 -0.33714,-0.77411 -0.59603,-1.87342 z m -169.3403,0.93301 c -0.34891,-0.14994 -0.39398,-0.23235 -0.13229,-0.24194 0.21828,-0.008 0.57547,0.10087 0.79375,0.24194 0.48365,0.31255 0.0659,0.31255 -0.66146,0 z m -4.55903,-0.44794 c 0.25744,-0.0671 0.61462,-0.0627 0.79375,0.01 0.17914,0.0725 -0.0315,0.12737 -0.46805,0.12197 -0.43656,-0.005 -0.58313,-0.0647 -0.3257,-0.13177 z m 2.91042,0 c 0.25743,-0.0671 0.61462,-0.0627 0.79375,0.01 0.17913,0.0725 -0.0315,0.12737 -0.46806,0.12197 -0.43656,-0.005 -0.58312,-0.0647 -0.32569,-0.13177 z m 31.78531,-4.31456 c 0,-2.25558 0.0406,-3.17831 0.0902,-2.05052 0.0496,1.12778 0.0496,2.97325 0,4.10104 -0.0496,1.12778 -0.0902,0.20505 -0.0902,-2.05052 z m 138.45449,0.59531 c -0.0808,-0.40018 -0.23222,-0.96573 -0.33659,-1.25677 -0.13268,-0.36999 -0.10466,-0.44958 0.0932,-0.26458 0.29198,0.27304 0.7479,2.24895 0.51892,2.24895 -0.0708,0 -0.19474,-0.32742 -0.2755,-0.7276 z m -1.595,-5.00504 c -0.097,-0.097 -0.17277,-0.3649 -0.16834,-0.59531 0.007,-0.344037 0.0582,-0.332608 0.28883,0.0639 0.2849,0.48993 0.2023,0.85417 -0.12049,0.53137 z m -0.68467,-1.852488 c -0.0115,-0.169999 -0.0894,-0.527186 -0.17316,-0.79375 -0.14474,-0.460697 -0.13727,-0.461274 0.15102,-0.01167 0.16681,0.260144 0.24473,0.617332 0.17316,0.79375 -0.0939,0.23151 -0.13594,0.234757 -0.15102,0.01167 z m -0.95781,-2.486638 c -0.0959,-0.155203 -0.11765,-0.338931 -0.0483,-0.408286 0.0694,-0.06936 0.1966,0.05763 0.28277,0.282186 0.17891,0.466224 0.0264,0.548232 -0.23447,0.1261 z m -1.15035,-2.657629 c -0.38494,-1.104262 -0.20099,-1.288215 0.23519,-0.235185 0.1847,0.445895 0.27402,0.872509 0.1985,0.948032 -0.0755,0.07552 -0.27068,-0.245258 -0.43369,-0.712847 z m -134.08245,-2.21956 c 9.6e-4,-1.164166 0.0475,-1.607504 0.10337,-0.985193 0.0559,0.62231 0.0551,1.57481 -0.002,2.116666 -0.0568,0.541857 -0.10258,0.03269 -0.10162,-1.131473 z M 407.81509,89.92148 c -1.26133,-2.720166 -1.5487,-3.494287 -1.15074,-3.099849 0.32357,0.320705 2.44026,5.199149 2.31165,5.327765 -0.048,0.04804 -0.57045,-0.954526 -1.16091,-2.227916 z M 275.76692,87.870809 c 0.005,-0.436563 0.0647,-0.583125 0.13178,-0.325694 0.0671,0.257431 0.0627,0.614619 -0.01,0.79375 -0.0725,0.179132 -0.12736,-0.03149 -0.12197,-0.468056 z M 276.0217,86.4156 c 0,-0.363802 0.0601,-0.51263 0.13346,-0.330729 0.0734,0.181901 0.0734,0.479558 0,0.661459 -0.0734,0.181901 -0.13346,0.03307 -0.13346,-0.33073 z m 0.26459,-1.322916 c 0,-0.363802 0.06,-0.51263 0.13345,-0.330729 0.0734,0.181901 0.0734,0.479557 0,0.661458 -0.0734,0.181901 -0.13345,0.03307 -0.13345,-0.330729 z m 129.92022,-4.101042 c 0.005,-0.436562 0.0647,-0.583125 0.13178,-0.325694 0.0671,0.257431 0.0627,0.614619 -0.01,0.79375 -0.0725,0.179132 -0.12736,-0.03149 -0.12197,-0.468056 z m 0.23958,-1.64245 c -0.0293,-0.934884 1.25847,-8.59707 1.48042,-8.808591 0.0763,-0.07276 0.0706,0.343958 -0.0127,0.926041 -0.0833,0.582084 -0.33023,2.30849 -0.54865,3.836459 -0.21843,1.527968 -0.50859,3.254374 -0.64481,3.836458 -0.24153,1.032091 -0.24833,1.037289 -0.27425,0.209633 z m -128.0789,-0.480623 c -0.007,-0.336917 2.28699,-4.387482 2.69244,-4.753139 0.16316,-0.147146 0.011,0.208712 -0.33818,0.790796 -0.34915,0.582083 -1.02035,1.772708 -1.49154,2.645833 -0.47119,0.873125 -0.85942,1.465554 -0.86272,1.31651 z m 3.16899,-5.682135 c 0.15576,-0.291042 0.34273,-0.529167 0.41549,-0.529167 0.0728,0 0.005,0.238125 -0.15091,0.529167 -0.15576,0.291042 -0.34273,0.529167 -0.41549,0.529167 -0.0728,0 -0.005,-0.238125 0.15091,-0.529167 z m 0.87565,-1.455208 c 0.22381,-0.436563 0.60485,-1.031875 0.84673,-1.322917 0.24189,-0.291042 0.17238,-0.05292 -0.15447,0.529167 -0.72111,1.284225 -1.26121,1.903508 -0.69226,0.79375 z m -91.19717,-2.31808 c -0.0873,-0.325786 -0.15277,-1.128118 -0.14545,-1.782962 l 0.0133,-1.190625 0.42795,0.859896 c 0.48847,0.981489 0.73567,1.047559 1.48487,0.396875 0.29322,-0.254662 0.12655,0.11232 -0.37038,0.815515 -1.11482,1.577568 -1.21234,1.639893 -1.4103,0.901301 z M 392.3966,66.82188 c -9.30254,-10.646095 -21.66919,-19.967526 -36.64479,-27.621223 -5.47667,-2.798999 -6.21952,-3.223417 -6.21585,-3.551307 0.002,-0.20084 2.0563,-2.74977 5.91104,-7.33515 8.69434,-10.342307 21.27817,-22.7193406 29.24029,-28.75976936 2.50109,-1.89743744 5.44361,-3.36174554 6.75543,-3.36174554 1.89916,0 3.9188,1.538326 4.81822,3.66996181 0.51537,1.22144389 1.85446,6.37641399 2.2223,8.55495559 1.88331,11.1540515 2.28828,21.5147205 1.32166,33.8125815 -0.77178,9.818944 -3.59568,27.78507 -4.36559,27.774645 -0.14552,-0.002 -1.51474,-1.434297 -3.04271,-3.182949 z m -108.47917,2.395804 c 0.15576,-0.291042 0.34273,-0.529167 0.41549,-0.529167 0.0728,0 0.005,0.238125 -0.15091,0.529167 -0.15576,0.291042 -0.34273,0.529167 -0.41549,0.529167 -0.0728,0 -0.005,-0.238125 0.15091,-0.529167 z m 1.64346,-3.03277 c 0.61074,-1.231461 1.15318,-2.196281 1.20542,-2.144045 0.11758,0.117579 -2.01216,4.383065 -2.18845,4.383065 -0.0701,0 0.37229,-1.007559 0.98303,-2.23902 z m -94.75591,-0.29657 c 0.0127,-0.308225 0.0754,-0.370919 0.15985,-0.159853 0.0764,0.190996 0.067,0.4192 -0.0209,0.507118 -0.0879,0.08792 -0.15045,-0.06835 -0.13896,-0.347265 z m -0.26458,-1.322917 c 0.0127,-0.308224 0.0754,-0.370919 0.15985,-0.159852 0.0764,0.190996 0.067,0.419199 -0.0209,0.507118 -0.0879,0.08792 -0.15045,-0.06835 -0.13896,-0.347266 z m 96.3062,-1.036285 c 0,-0.14552 0.17015,-0.562239 0.37812,-0.926041 0.20797,-0.363802 0.37812,-0.542396 0.37812,-0.396875 0,0.145521 -0.17015,0.562239 -0.37812,0.926041 -0.20797,0.363802 -0.37812,0.542396 -0.37812,0.396875 z m -96.70357,-1.124479 c -0.40704,-2.364703 -0.42898,-2.600694 -0.19066,-2.050521 0.27085,0.625242 0.65261,3.042709 0.4805,3.042709 -0.0655,0 -0.19591,-0.446485 -0.28984,-0.992188 z m 97.48667,-0.727604 c 0,-0.145521 0.11541,-0.443177 0.25648,-0.661458 0.14106,-0.218281 0.25648,-0.277813 0.25648,-0.132292 0,0.145521 -0.11542,0.443177 -0.25648,0.661458 -0.14107,0.218282 -0.25648,0.277813 -0.25648,0.132292 z m 121.45654,-0.286632 c 0.0127,-0.308224 0.0754,-0.370919 0.15985,-0.159852 0.0764,0.190996 0.067,0.419199 -0.0209,0.507118 -0.0879,0.08792 -0.15045,-0.06835 -0.13896,-0.347266 z M 288.15886,60.354142 c 0,-0.14552 0.11542,-0.443177 0.25649,-0.661458 0.14106,-0.218281 0.25648,-0.277812 0.25648,-0.132292 0,0.145521 -0.11542,0.443178 -0.25648,0.661459 -0.14107,0.218281 -0.25649,0.277812 -0.25649,0.132291 z m 0.79375,-2.116666 c 0,-0.145521 0.11542,-0.443177 0.25649,-0.661459 0.14106,-0.218281 0.25648,-0.277812 0.25648,-0.132291 0,0.145521 -0.11542,0.443177 -0.25648,0.661458 -0.14107,0.218281 -0.25649,0.277813 -0.25649,0.132292 z m 1.35201,-3.836458 c 0,-0.218282 0.10233,-0.635 0.22739,-0.926042 0.14333,-0.333544 0.22739,-0.38245 0.22739,-0.132292 0,0.218281 -0.10232,0.635 -0.22739,0.926042 -0.14333,0.333544 -0.22739,0.38245 -0.22739,0.132292 z m 0.51286,-2.006424 c 0.0127,-0.308225 0.0754,-0.370919 0.15986,-0.159852 0.0764,0.190996 0.067,0.419199 -0.0209,0.507118 -0.0879,0.08792 -0.15046,-0.06835 -0.13897,-0.347266 z m 0.26459,-1.058333 c 0.0127,-0.308225 0.0754,-0.37092 0.15985,-0.159853 0.0764,0.190996 0.067,0.419199 -0.0209,0.507118 -0.0879,0.08792 -0.15045,-0.06835 -0.13896,-0.347265 z M 188.29651,49.846142 c -0.99163,-4.892449 -1.48923,-26.876486 -0.73832,-32.619082 0.80459,-6.153064 1.80582,-11.6947324 2.06594,-11.4346183 0.0616,0.061629 -0.0625,0.8736931 -0.27582,1.8045859 -0.94047,4.1038434 -1.46384,9.6529784 -1.63192,17.3029484 -0.17076,7.771707 0.16982,19.214847 0.69589,23.381334 0.28156,2.229964 0.21136,3.178814 -0.11577,1.564832 z m 103.05014,0.431785 c 0.0127,-0.308224 0.0754,-0.370919 0.15985,-0.159852 0.0764,0.190996 0.067,0.419199 -0.0209,0.507118 -0.0879,0.08792 -0.15045,-0.06835 -0.13896,-0.347266 z m 0.26458,-1.058333 c 0.0127,-0.308225 0.0754,-0.370919 0.15986,-0.159852 0.0764,0.190996 0.067,0.419199 -0.0209,0.507118 -0.0879,0.08792 -0.15046,-0.06835 -0.13897,-0.347266 z m 0.28547,-1.168576 c 0,-0.363802 0.0601,-0.512631 0.13346,-0.33073 0.0734,0.181901 0.0734,0.479558 0,0.661459 -0.0734,0.181901 -0.13346,0.03307 -0.13346,-0.330729 z m 0.26459,-1.322917 c 0,-0.363802 0.06,-0.51263 0.13345,-0.330729 0.0734,0.181901 0.0734,0.479557 0,0.661458 -0.0734,0.181901 -0.13345,0.03307 -0.13345,-0.330729 z m 118.30265,-1.190625 c 0.002,-0.727604 0.0534,-0.993858 0.11419,-0.591675 0.0608,0.402184 0.0592,0.997496 -0.004,1.322917 -0.0628,0.325421 -0.11256,-0.0036 -0.11057,-0.731242 z m -118.05896,-0.02205 c 0.0127,-0.308224 0.0754,-0.370919 0.15986,-0.159852 0.0764,0.190996 0.067,0.419199 -0.0209,0.507118 -0.0879,0.08792 -0.15046,-0.06835 -0.13897,-0.347266 z m 0.28547,-1.433159 c 0,-0.363802 0.0601,-0.512631 0.13346,-0.330729 0.0734,0.181901 0.0734,0.479557 0,0.661458 -0.0734,0.181901 -0.13346,0.03307 -0.13346,-0.330729 z m 118.00418,-1.058334 c 0,-0.363802 0.06,-0.51263 0.13345,-0.330729 0.0734,0.181901 0.0734,0.479557 0,0.661459 -0.0734,0.181901 -0.13345,0.03307 -0.13345,-0.33073 z M 229.26487,39.34582 c 0.1558,-0.2521 1.73589,-0.871559 1.73589,-0.680542 0,0.128807 -1.48089,0.919073 -1.72227,0.919073 -0.0886,0 -0.0947,-0.107339 -0.0136,-0.238531 z m 2.41292,-1.208263 c 0.28248,-0.213653 0.62565,-0.392247 0.7626,-0.396875 0.13696,-0.0046 0.0179,0.166393 -0.26458,0.380046 -0.28248,0.213653 -0.62565,0.392247 -0.7626,0.396875 -0.13695,0.0046 -0.0179,-0.166392 0.26458,-0.380046 z m 1.3115,-0.676593 c 0.0917,-0.148338 0.87496,-0.627242 1.74063,-1.064232 1.77004,-0.893509 1.76892,-0.873976 0.17381,-3.030089 -0.4427,-0.598403 -0.0914,-0.310946 0.80836,0.661458 l 1.59132,1.719792 -1.62997,0.750542 c -2.3945,1.102582 -2.87783,1.2759 -2.68415,0.962529 z m -2.25985,-8.894278 c -4.89882,-5.444621 -5.63351,-6.242422 -8.45993,-9.186617 -8.76062,-9.125662 -13.38109,-13.5394818 -18.78542,-17.9452574 -5.67291,-4.6247303 -8.94069,-5.3710488 -11.36794,-2.5962932 -0.65968,0.75411716 -0.44338,0.23741292 0.37076,-0.8856844 1.26259,-1.7417333 2.99683,-1.9220146 5.57282,-0.5793176 3.61621,1.88489678 8.42916,5.7858579 16.06264,13.0189866 4.89094,4.634425 13.43323,13.755616 16.9319,18.079348 0.52989,0.654844 1.3386,1.63711 1.79714,2.182813 1.6716,1.989352 0.58159,0.916804 -2.12197,-2.087978 z m 63.24216,-3.145847 c 0,-0.213714 0.17859,-0.388571 0.39687,-0.388571 0.21828,0 0.39688,0.106324 0.39688,0.236276 0,0.129952 -0.1786,0.304809 -0.39688,0.388571 -0.24175,0.09277 -0.39687,4.18e-4 -0.39687,-0.236276 z m 116.70214,-0.278328 c 0.0127,-0.308224 0.0754,-0.370919 0.15985,-0.159852 0.0764,0.190996 0.067,0.419199 -0.0209,0.507118 -0.0879,0.08792 -0.15045,-0.06835 -0.13896,-0.347266 z m 0.0405,-1.43316 c 0,-0.509323 0.0545,-0.717682 0.121,-0.463021 0.0665,0.254662 0.0665,0.671381 0,0.926042 -0.0666,0.254662 -0.121,0.0463 -0.121,-0.463021 z m -0.30508,-3.108854 c 0.024,-2.051901 0.15503,-1.940623 0.31155,0.264584 0.0594,0.836744 0.009,1.521354 -0.11223,1.521354 -0.12111,0 -0.2108,-0.803672 -0.19932,-1.785938 z m -0.10908,-2.094618 c -0.097,-0.09701 -0.16269,-0.603029 -0.14596,-1.124479 l 0.0304,-0.94809 0.20626,1.058333 c 0.21669,1.111854 0.19946,1.304425 -0.0907,1.014236 z M 355.09035,8.827911 c 0,-0.055444 0.35719,-0.4430144 0.79375,-0.8612678 0.43656,-0.4182534 0.79375,-0.6272301 0.79375,-0.4643928 0,0.1628374 -0.35719,0.5504079 -0.79375,0.8612678 -0.43656,0.3108599 -0.79375,0.5198367 -0.79375,0.4643928 z m 54.01678,-0.7289761 c 0,-0.3638021 0.06,-0.5126302 0.13345,-0.3307292 0.0734,0.1819011 0.0734,0.4795573 0,0.6614584 -0.0734,0.181901 -0.13345,0.033073 -0.13345,-0.3307292 z m -0.26459,-1.5875 c 0,-0.3638021 0.0601,-0.5126302 0.13345,-0.3307291 0.0734,0.181901 0.0734,0.4795572 0,0.6614583 -0.0734,0.181901 -0.13345,0.033073 -0.13345,-0.3307292 z M 189.74665,4.7695947 c 0.0127,-0.3082245 0.0754,-0.3709192 0.15985,-0.1598525 0.0764,0.1909961 0.067,0.4191992 -0.0209,0.5071181 -0.0879,0.087919 -0.15045,-0.068351 -0.13896,-0.3472656 z M 359.45597,4.6593516 c 0.26339,-0.2910417 0.53842,-0.5291667 0.61118,-0.5291667 0.0728,0 -0.0832,0.238125 -0.34659,0.5291667 -0.26339,0.2910417 -0.53842,0.5291667 -0.61118,0.5291667 -0.0728,0 0.0832,-0.238125 0.34659,-0.5291667 z M 190.52356,1.9629874 c -0.002,-0.2460733 0.11501,-0.5209906 0.26053,-0.6109274 0.33486,-0.2069524 0.33486,0.1433056 0,0.6614583 -0.22103,0.3420235 -0.25704,0.3350397 -0.26053,-0.050531 z m 173.9595,-1.77839844 c 0.75258,-0.82038694 2.24895,-2.02563926 2.24895,-1.81142486 0,0.054915 -0.6846,0.67963367 -1.52135,1.38826366 -0.97696,0.8273786 -1.23732,0.97879998 -0.7276,0.4231612 z m 42.63099,-1.64372686 c -0.22057,-1.1028504 -0.007,-1.3166043 0.23151,-0.2315104 0.10045,0.4573737 0.12749,0.88674028 0.0601,0.95414788 -0.0674,0.0674076 -0.19863,-0.25777925 -0.2916,-0.72263748 z m -37.47162,-2.722364 c 0.3638,-0.4030047 0.89958,-0.8603585 1.19063,-1.0163419 0.47865,-0.256532 0.49352,-0.2404046 0.15579,0.1689372 -0.20536,0.2488988 -0.74114,0.7062526 -1.19063,1.0163418 l -0.81725,0.5637985 z m 36.67461,-0.5272747 c -0.0879,-0.350283 -0.23741,-0.8562987 -0.33221,-1.1244791 -0.1181,-0.3341014 -0.0856,-0.4043086 0.10329,-0.2230175 0.2882,0.2766346 0.73003,1.9843749 0.51339,1.9843749 -0.0685,0 -0.19656,-0.2865952 -0.28447,-0.6368783 z M 371.50016,-5.580535 c 0.007,-0.272582 5.04621,-4.1161951 7.85767,-5.993706 2.82965,-1.889655 2.83426,-1.892385 2.62719,-1.55735 -0.096,0.155366 -1.03715,0.847284 -2.0914,1.537594 -1.05425,0.690311 -3.37533,2.3732492 -5.15796,3.7398635 -1.78263,1.3666144 -3.23861,2.3897338 -3.2355,2.2735985 z m 33.62472,-3.0579889 c -0.90948,-2.7516351 -0.92126,-2.8379901 -0.20717,-1.5187911 0.54855,1.0133938 1.20631,3.4449495 0.92975,3.4370203 -0.0492,-0.00141 -0.37433,-0.8646129 -0.72258,-1.9182292 z m -1.20189,-3.2933171 c -0.14359,-0.377084 -0.1132,-0.407475 0.14811,-0.148113 0.18082,0.179476 0.26211,0.39297 0.18065,0.474432 -0.0815,0.08146 -0.22941,-0.06538 -0.32876,-0.326319 z m -2.39827,-3.446101 c -1.77909,-1.953626 -3.02966,-2.632603 -5.50108,-2.986709 l -1.64267,-0.235363 2.02638,0.09808 c 2.36146,0.114297 2.76858,0.29709 4.67291,2.098129 1.11677,1.056191 2.50195,2.8909 2.1049,2.788005 -0.0401,-0.0104 -0.78731,-0.80336 -1.66044,-1.762142 z m -17.3302,0.87362 c 0,-0.07276 0.23812,-0.259732 0.52916,-0.415493 0.29104,-0.155761 0.52917,-0.22367 0.52917,-0.15091 0,0.07276 -0.23813,0.259733 -0.52917,0.415494 -0.29104,0.15576 -0.52916,0.22367 -0.52916,0.150909 z m 2.05337,-1.208075 c 0.95491,-0.582217 3.8982,-1.862606 4.22251,-1.836873 0.23332,0.01851 -4.64341,2.365416 -4.91202,2.363883 -0.0953,-5.44e-4 0.215,-0.237699 0.68951,-0.52701 z"
           id="path22"
           sodipodi:nodetypes="sssssccccccccccssssccsccssssccsccssssccccccccccssssccccccccccsssssssssssscccccsssssssssssssssssssssssssssssssssssssssssssssssssssssssssssssssssssssssssssssssssssssssssssssssssssssssssssssssssssssssssssssssssssssssssssssssscssssssssssssssssssssssssssssssssssssssssssssssssssssscssssssssssssssssssssssssssssssssscssssssssscssssssssscsssssssssssssscsssscsssssssssssssssssssssssscsssssscsscsssscssssssssscsssssssssssssssssssssssssssssssssssssssssssssscsssssscsssssssssssssssssssssscssssssssssscsssssssssssssssscssccsccssssssssssssssssssssssssssssssssssssssssssssssssccsccccsccssssccsccccsccsssssssssssssssssscccccsssssssssssssssssssssssssssssssssssssssssssssscsscssssssssssssssssssssssssssssssssssssssssssssssssssssssscsssssccsccsssscsccccccsccccscssccssssssssssssssssssssssssssssscsccccsscccscccsssssssssssssssssssscssssssssssssssccsccsssssssssccccccccccssssssssssscsssssssssssssssscscccsssscscccsssssssscscccssssssscsssccscscsssssscssssssscsssssssscscscssssssssssssssssssssssssssssssssssssssssssssssssssssssssssssssssssssssssssssssssssscscccssssssssssssssssssssssssssscsssssssssssssssssssssssssssssssscssssssssssssssssssssssssscsscssssssssssssscsssssscsssscsssssssssscsssssssssssss" /><path
           style="fill:#d7773b"
           d="m 404.4201,175.11716 c 0.20173,-0.65627 -0.23257,-0.83675 -0.47751,-0.19844 -0.23853,0.6216 -0.60256,0.50038 -3.45167,-1.14937 -8.16763,-4.72938 -20.23253,-9.11529 -29.52557,-10.7333 -7.225,-1.25795 -15.02065,-2.00586 -20.95167,-2.01009 -6.45028,-0.005 -12.66501,-1.34113 -17.54521,-3.77325 -8.50203,-4.23713 -14.72187,-10.89501 -18.10086,-19.37565 -2.41479,-6.06068 -2.94752,-11.45111 -2.58873,-26.19375 0.31935,-13.121864 0.0949,-23.474674 -0.57371,-26.458335 -0.95028,-4.240808 -1.99584,-6.744887 -4.43006,-10.609846 -5.52744,-8.776246 -9.06188,-16.754842 -10.82475,-24.435647 -0.894,-3.895151 -1.6504,-8.573649 -1.77714,-10.992006 -0.0466,-0.889411 -0.17771,-1.301241 -0.40006,-1.256771 -0.25689,0.05138 -0.33073,-1.28772 -0.33073,-5.997631 0,-5.777996 0.14204,-7.60753 0.50935,-6.560422 0.11032,0.3145 0.26149,0.363808 0.54905,0.179093 0.35268,-0.226549 0.35267,-0.283865 -7e-5,-0.515426 -0.90758,-0.595788 8.74693,-0.111883 16.13959,0.808951 5.13293,0.639361 14.81246,2.514188 19.77867,3.830927 2.49847,0.662444 3.63963,0.856813 3.96875,0.675984 0.62727,-0.34464 2.46778,-2.301866 6.74429,-7.171996 7.35909,-8.380609 15.62526,-16.7320182 22.42495,-22.65622472 15.21672,-13.25749628 25.33068,-19.41625028 31.87698,-19.41104928 2.51264,0.002 3.6086,0.353886 5.23892,1.682111 3.39033,2.762102 5.35522,7.4255119 7.70735,18.2924547 2.23684,10.3342863 2.91706,17.7263423 2.92165,31.7499993 0.005,15.779598 -0.79578,24.560906 -4.25617,46.66381 -0.61873,3.952104 -0.67515,4.760492 -0.40318,5.777355 0.17392,0.650261 1.4536,3.698496 2.84373,6.773855 2.69118,5.953664 4.22506,10.094064 5.27722,14.244794 2.74192,10.81681 3.71221,20.536 2.92342,29.2831 -1.27798,14.17166 -4.81318,25.40955 -11.79238,37.48625 -1.50781,2.60909 -1.74944,2.94513 -1.47445,2.05052 z m 10.64682,-26.04492 c -0.0845,-0.21107 -0.14715,-0.14837 -0.15985,0.15985 -0.0115,0.27892 0.0511,0.43519 0.13897,0.34727 0.0879,-0.0879 0.0973,-0.31612 0.0209,-0.50712 z m 1.03463,-3.97985 c 0.18936,-1.05802 0.33889,-2.28085 0.33228,-2.71742 -0.0105,-0.69551 -0.94902,3.6327 -0.9992,4.60816 -0.0509,0.98874 0.36006,-0.17622 0.66692,-1.89074 z m 1.12241,-8.67054 -0.0188,-1.45521 -0.19739,1.19063 c -0.10856,0.65484 -0.26401,2.08359 -0.34545,3.175 l -0.14807,1.98437 0.36423,-1.71979 c 0.20032,-0.94589 0.35578,-2.37464 0.34545,-3.175 z m 0.43828,-7.9375 c -0.065,-0.65484 -0.18728,-2.67891 -0.27168,-4.49792 -0.14051,-3.0282 -0.46095,-5.74191 -0.82247,-6.96525 -0.32141,-1.0876 -0.30286,-0.14449 0.0486,2.47188 0.20492,1.52547 0.46223,5.45249 0.57181,8.72671 0.17654,5.27524 0.22159,5.69703 0.3956,3.70416 0.108,-1.23692 0.14316,-2.78474 0.0781,-3.43958 z m -71.53769,2.64543 c 3.78817,-0.70436 7.44261,-3.81098 8.47281,-7.2027 0.44656,-1.47019 0.53223,-2.31692 0.44388,-4.38696 -0.0942,-2.20727 -0.22639,-2.8078 -0.94748,-4.30443 -1.01566,-2.10804 -3.15214,-4.22671 -5.21424,-5.17077 -4.30279,-1.96988 -8.94533,-1.11769 -12.32774,2.2629 -4.26876,4.26646 -4.40011,10.91088 -0.30412,15.38464 2.6775,2.92446 6.12061,4.11574 9.87689,3.41732 z m 69.95226,-17.19751 c -0.10264,-0.74624 -0.23986,-1.30354 -0.30495,-1.23845 -0.0651,0.0651 -0.037,0.73153 0.0624,1.48098 0.0994,0.74945 0.23665,1.30676 0.30495,1.23845 0.0683,-0.0683 0.0402,-0.73475 -0.0624,-1.48098 z m -0.48072,-2.43086 c -0.0845,-0.21107 -0.14716,-0.14837 -0.15985,0.15985 -0.0115,0.27891 0.051,0.43518 0.13896,0.34727 0.0879,-0.0879 0.0973,-0.31613 0.0209,-0.50712 z m -0.58458,-2.72156 c -0.25888,-1.09931 -0.52709,-1.94234 -0.59602,-1.87341 -0.0689,0.0689 0.0865,1.02476 0.34536,2.12407 0.25889,1.09931 0.5271,1.94235 0.59603,1.87342 0.0689,-0.0689 -0.0865,-1.02476 -0.34537,-2.12408 z m -0.77793,-3.2481 c -0.10028,-0.54571 -0.30965,-1.11125 -0.46526,-1.25677 -0.19783,-0.185 -0.22585,-0.10541 -0.0932,0.26458 0.10437,0.29104 0.25583,0.85659 0.33659,1.25677 0.0808,0.40018 0.20474,0.7276 0.2755,0.7276 0.0708,0 0.0466,-0.44648 -0.0537,-0.99218 z m -1.69635,-5.27183 c -0.2306,-0.396548 -0.28223,-0.407977 -0.28883,-0.0639 -0.009,0.44558 0.26966,0.84677 0.45717,0.65926 0.0618,-0.0618 -0.0139,-0.32974 -0.16834,-0.59532 z m -0.8273,-2.126539 c -0.28829,-0.449603 -0.29576,-0.449026 -0.15102,0.01167 0.0837,0.266564 0.16167,0.623751 0.17316,0.79375 0.0151,0.223086 0.0571,0.219839 0.15102,-0.01167 0.0716,-0.176418 -0.006,-0.533606 -0.17316,-0.79375 z m -0.7012,-1.807317 c -0.0862,-0.224557 -0.21341,-0.351541 -0.28277,-0.282186 -0.0693,0.06935 -0.0476,0.253083 0.0483,0.408286 0.26089,0.422132 0.41338,0.340124 0.23447,-0.1261 z M 409.8591,93.55935 c -0.43618,-1.05303 -0.62013,-0.869077 -0.23519,0.235185 0.16301,0.467589 0.35816,0.788369 0.43369,0.712847 0.0755,-0.07552 -0.0138,-0.502137 -0.1985,-0.948032 z m -1.85716,-3.980635 c -0.96386,-2.255119 -1.89731,-3.880038 -1.4371,-2.501656 0.31389,0.940135 2.321,5.162492 2.41116,5.072337 0.048,-0.04803 -0.39029,-1.204842 -0.97406,-2.570681 z m -1.66365,-8.912767 c -0.0671,-0.257431 -0.12638,-0.110868 -0.13178,0.325694 -0.005,0.436563 0.0495,0.647188 0.12197,0.468056 0.0725,-0.179131 0.0769,-0.536319 0.01,-0.79375 z m 1.02686,-5.362847 c 0.21842,-1.527969 0.46532,-3.254375 0.54865,-3.836459 0.0833,-0.582083 0.0891,-0.998802 0.0127,-0.926041 -0.22195,0.211521 -1.50969,7.873707 -1.48042,8.808591 0.0259,0.827656 0.0327,0.822458 0.27425,-0.209633 0.13622,-0.582084 0.42638,-2.30849 0.64481,-3.836458 z m -11.20242,-7.211407 c 0.99718,-4.165597 3.12366,-19.264824 3.64217,-25.86151 0.96662,-12.297861 0.56165,-22.65853 -1.32166,-33.8125815 -0.36784,-2.1785416 -1.70693,-7.3335117 -2.2223,-8.55495559 -0.89942,-2.13163581 -2.91906,-3.66996181 -4.81822,-3.66996181 -1.31182,0 -4.25434,1.4643081 -6.75543,3.36174554 C 376.72517,5.5948594 364.14134,17.971893 355.447,28.3142 c -3.85474,4.58538 -5.90879,7.13431 -5.91104,7.33515 -0.004,0.32789 0.73918,0.752308 6.21585,3.551307 14.9756,7.653697 27.34225,16.975128 36.64479,27.621223 1.52797,1.748652 2.89719,3.180979 3.04271,3.182949 0.14552,0.002 0.47106,-0.858941 0.72342,-1.913135 z m 13.08336,-6.861119 c -0.0845,-0.211067 -0.14716,-0.148372 -0.15985,0.159852 -0.0115,0.278915 0.051,0.435185 0.13896,0.347266 0.0879,-0.08792 0.0973,-0.316122 0.0209,-0.507118 z m 1.33204,-16.284774 c -0.0608,-0.402183 -0.1122,-0.135929 -0.11419,0.591675 -0.002,0.727604 0.0478,1.056663 0.11057,0.731242 0.0628,-0.325421 0.0644,-0.920733 0.004,-1.322917 z m 0.24995,-2.252596 c -0.0734,-0.181901 -0.13345,-0.03307 -0.13345,0.330729 0,0.363802 0.06,0.512631 0.13345,0.33073 0.0734,-0.181902 0.0734,-0.479558 0,-0.661459 z m 0.006,-17.710546 c -0.0845,-0.211067 -0.14716,-0.148372 -0.15985,0.159852 -0.0115,0.278915 0.051,0.435184 0.13896,0.347266 0.0879,-0.08792 0.0973,-0.316122 0.0209,-0.507118 z m 0.002,-1.736329 c -0.0666,-0.254661 -0.121,-0.0463 -0.121,0.463021 0,0.509323 0.0545,0.717683 0.121,0.463021 0.0665,-0.254661 0.0665,-0.67138 0,-0.926042 z m -0.11453,-2.381249 c -0.15652,-2.205207 -0.28755,-2.316485 -0.31155,-0.264584 -0.0115,0.982266 0.0782,1.785938 0.19932,1.785938 0.12111,0 0.17162,-0.68461 0.11223,-1.521354 z m -0.3299,-3.373438 -0.20626,-1.058333 -0.0304,0.94809 c -0.0167,0.52145 0.0489,1.027465 0.14596,1.124479 0.29019,0.290189 0.30742,0.09762 0.0907,-1.014236 z m -53.7138,-9.9893926 c 0,-0.1628373 -0.35719,0.046139 -0.79375,0.4643928 -0.43656,0.4182534 -0.79375,0.8058239 -0.79375,0.8612678 0,0.055444 0.35719,-0.1535329 0.79375,-0.4643928 0.43656,-0.3108599 0.79375,-0.6984304 0.79375,-0.8612678 z m 52.56273,0.2659553 c -0.0734,-0.181901 -0.13345,-0.033073 -0.13345,0.3307292 0,0.3638021 0.06,0.5126302 0.13345,0.3307292 0.0734,-0.1819011 0.0734,-0.4795573 0,-0.6614584 z m -0.26459,-1.5874999 c -0.0734,-0.1819011 -0.13345,-0.033073 -0.13345,0.3307291 0,0.3638021 0.0601,0.5126302 0.13345,0.3307292 0.0734,-0.1819011 0.0734,-0.4795573 0,-0.6614583 z M 359.72056,4.6593516 c 0.26339,-0.2910417 0.41935,-0.5291667 0.34659,-0.5291667 -0.0728,0 -0.34779,0.238125 -0.61118,0.5291667 -0.26339,0.2910417 -0.41936,0.5291667 -0.34659,0.5291667 0.0728,0 0.34779,-0.238125 0.61118,-0.5291667 z m 7.01145,-6.2861875 c 0,-0.2142144 -1.49637,0.99103792 -2.24895,1.81142486 -0.50972,0.55563878 -0.24936,0.4042174 0.7276,-0.4231612 0.83675,-0.70862999 1.52135,-1.33334866 1.52135,-1.38826366 z m 40.61355,-0.063812 c -0.23833,-1.0850939 -0.45208,-0.87134 -0.23151,0.2315104 0.093,0.46485823 0.22419,0.79004509 0.2916,0.72263748 0.0674,-0.0674076 0.0404,-0.49677418 -0.0601,-0.95414788 z m -36.35671,-3.3382583 c 0.33773,-0.4093418 0.32286,-0.4254692 -0.15579,-0.1689372 -0.29105,0.1559834 -0.82683,0.6133372 -1.19063,1.0163419 l -0.66146,0.7327356 0.81725,-0.5637985 c 0.44949,-0.3100892 0.98527,-0.767443 1.19063,-1.0163418 z m 35.55611,0.097112 c -0.0997,-0.4729427 -0.30524,-0.9789583 -0.45684,-1.1244791 -0.18888,-0.1812911 -0.22139,-0.1110839 -0.10329,0.2230175 0.0948,0.2681804 0.24429,0.7741961 0.33221,1.1244791 0.24034,0.9576147 0.43629,0.7658838 0.22792,-0.2230175 z m -26.65134,-6.6622028 c 1.05425,-0.69031 1.99538,-1.382228 2.0914,-1.537594 0.20707,-0.335035 0.20246,-0.332305 -2.62719,1.55735 -2.81146,1.8775108 -7.85039,5.7211239 -7.85767,5.9937059 -0.003,0.1161353 1.45287,-0.9069841 3.2355,-2.2735985 1.78263,-1.3666143 4.10371,-3.0495524 5.15796,-3.7398634 z m 25.85591,3.7517862 c -0.10303,-0.6184635 -0.47735,-1.6602604 -0.83182,-2.3151042 -0.35447,-0.654844 -0.59533,-1.012031 -0.53525,-0.79375 0.29982,1.08921 1.38688,4.2285305 1.465,4.2307702 0.0492,0.00141 0.005,-0.5034525 -0.0979,-1.121916 z m -1.67843,-4.2377432 c -0.26131,-0.259362 -0.2917,-0.228971 -0.14811,0.148113 0.0993,0.260937 0.2473,0.407781 0.32876,0.326319 0.0815,-0.08146 1.7e-4,-0.294956 -0.18065,-0.474432 z m -1.19112,-2.248154 c -0.42846,-0.828559 -2.9078,-3.252395 -3.83378,-3.747967 -0.33686,-0.18028 -1.52434,-0.371917 -2.63885,-0.42586 l -2.02638,-0.09808 1.64267,0.235363 c 2.47142,0.354106 3.72199,1.033083 5.50108,2.986709 0.87313,0.958781 1.62033,1.751744 1.66044,1.762141 0.0401,0.0104 -0.0972,-0.310141 -0.30518,-0.712307 z m -17.62713,-0.742617 c 0,-0.07276 -0.23813,-0.0049 -0.52917,0.15091 -0.29104,0.155761 -0.52916,0.342733 -0.52916,0.415493 0,0.07276 0.23812,0.0049 0.52916,-0.150909 0.29104,-0.155761 0.52917,-0.342733 0.52917,-0.415494 z m 2.95137,-1.28792 c 2.7059,-1.285046 2.98137,-1.594899 0.48309,-0.543388 -1.52768,0.642992 -3.48097,1.714636 -3.12893,1.716646 0.0953,5.44e-4 1.28591,-0.527422 2.64584,-1.173258 z M 192.52779,68.688517 c 0.55488,-0.800364 0.76711,-1.246849 0.47164,-0.992187 -0.75453,0.650325 -1.0004,0.584791 -1.48896,-0.396875 l -0.42795,-0.859896 -0.0478,1.322917 c -0.1046,2.893608 -2.58984,-11.880357 -3.5606,-21.166667 -0.4835,-4.625173 -0.91344,-17.050566 -0.7553,-21.828124 0.32606,-9.850305 1.82297,-19.1301087 3.93813,-24.41369229 1.11446,-2.78385271 3.29126,-4.54028631 5.06169,-4.08419681 0.27968,0.07205 0.11528,0.1392422 -0.3836,0.1567805 -1.14151,0.040131 -2.17054,0.5915736 -2.8481,1.5262576 -0.81414,1.12309732 -1.03044,1.63980156 -0.37076,0.8856844 1.03582,-1.1841149 1.89292,-1.5839125 3.3996,-1.5857566 2.58055,-0.00316 5.95102,2.18703068 12.99543,8.4446296 3.52993,3.1356733 14.43182,14.1951536 18.52083,18.7885606 4.4863,5.039706 7.36178,8.107722 5.8436,6.234858 -0.47185,-0.582084 -1.29145,-1.594115 -1.82134,-2.248959 C 227.5556,24.148119 219.01331,15.026928 214.12237,10.392503 206.4837,3.1544612 201.7174,-0.70803329 198.01281,-2.662285 c -1.06824,-0.5635204 -1.48083,-0.8768632 -1.01101,-0.7678136 1.08532,0.2519124 3.85881,1.920162 6.23171,3.74837102 7.25853,5.59235228 19.73908,18.06190158 29.3701,29.34420358 3.99493,4.679874 4.74732,5.608685 4.73835,5.849359 -0.005,0.129832 -0.73158,-0.537848 -1.61499,-1.483734 -0.95121,-1.018484 -1.28692,-1.288218 -0.82324,-0.661458 1.59511,2.156113 1.59623,2.13658 -0.17381,3.030089 -0.86567,0.43699 -1.64895,0.915894 -1.74063,1.064232 -0.19446,0.314639 0.63937,0.02905 2.16964,-0.743105 0.55066,-0.277857 1.29886,-0.587093 1.66266,-0.687193 0.36381,-0.100099 -2.01744,1.207458 -5.29166,2.905683 -6.70492,3.477613 -9.52313,5.136089 -15.1567,8.919498 -7.00589,4.705038 -14.00689,10.677336 -19.79068,16.882712 -1.6858,1.808675 -3.51476,3.76475 -4.06435,4.346833 l -0.99926,1.058334 z m -1.56296,-2.960026 c -0.0845,-0.211066 -0.14715,-0.148372 -0.15985,0.159853 -0.0115,0.278915 0.051,0.435184 0.13896,0.347265 0.0879,-0.08792 0.0973,-0.316122 0.0209,-0.507118 z m -0.26458,-1.322916 c -0.0845,-0.211067 -0.14716,-0.148372 -0.15985,0.159852 -0.0115,0.278915 0.051,0.435185 0.13896,0.347266 0.0879,-0.08792 0.0973,-0.316122 0.0209,-0.507118 z m -0.33348,-2.265495 c -0.10185,-0.691224 -0.28832,-1.494896 -0.4144,-1.785938 -0.23832,-0.550173 -0.21638,-0.314182 0.19066,2.050521 0.24878,1.445289 0.44199,1.216798 0.22374,-0.264583 z m -1.95449,-13.85877 c -0.52607,-4.166487 -0.86665,-15.609627 -0.69589,-23.381334 0.16808,-7.64997 0.69145,-13.199105 1.63192,-17.3029484 0.21333,-0.9308928 0.33745,-1.7429564 0.27582,-1.8045859 -0.26012,-0.2601141 -1.26135,5.2815543 -2.06594,11.4346183 -0.75091,5.742596 -0.25331,27.726633 0.73832,32.619082 0.32713,1.613982 0.39733,0.665132 0.11577,-1.564832 z m 41.80787,-9.100628 c 0.42933,-0.222019 0.78061,-0.45395 0.78061,-0.515404 0,-0.191017 -1.58009,0.428442 -1.73589,0.680542 -0.21209,0.343165 0.0649,0.295275 0.95528,-0.165138 z m 1.95566,-1.059954 c 0.28247,-0.213653 0.40154,-0.384674 0.26458,-0.380046 -0.13695,0.0046 -0.48012,0.183222 -0.7626,0.396875 -0.28247,0.213654 -0.40153,0.384674 -0.26458,0.380046 0.13695,-0.0046 0.48012,-0.183222 0.7626,-0.396875 z M 189.9065,4.6097422 c -0.0845,-0.2110667 -0.14716,-0.148372 -0.15985,0.1598525 -0.0115,0.2789149 0.051,0.4351844 0.13896,0.3472656 0.0879,-0.087919 0.0973,-0.316122 0.0209,-0.5071181 z m 1.13812,-3.2071513 c 0.002,-0.1177288 -0.11501,-0.1404677 -0.26053,-0.050531 -0.14552,0.089937 -0.26276,0.3648541 -0.26053,0.6109274 0.003,0.3855706 0.0395,0.3925544 0.26053,0.050531 0.14107,-0.2182812 0.2583,-0.4931986 0.26053,-0.6109274 z"
           id="path21" /><path
           style="fill:#313237"
           d="m 181.69616,174.19112 c -1.07865,-1.74163 -3.26631,-5.69941 -4.06109,-7.34704 -1.96204,-4.06749 -3.58609,-8.13507 -4.57558,-11.45999 -1.42,-4.77152 -1.55211,-5.28536 -2.22219,-8.64349 -2.44118,-12.23394 -2.48211,-21.62481 -0.14878,-34.13941 1.27051,-6.81424 3.65261,-13.856062 7.51549,-22.21684 1.10936,-2.401093 2.08088,-4.841875 2.15892,-5.423958 0.078,-0.582083 -0.16905,-3.082396 -0.54911,-5.55625 -2.59006,-16.859185 -4.024,-30.854632 -4.2967,-41.936458 -0.23883,-9.70587 0.61708,-22.865333 2.03002,-31.2110584 2.15654,-12.73792 4.35368,-19.1723346 7.68384,-22.5024936 3.78596,-3.785962 7.72323,-3.805432 15.2104,-0.07521 6.51791,3.247315 15.52376,9.9456428 25.4,18.8918886 6.41581,5.8116573 17.8243,17.6279674 25.08636,25.9831214 1.79905,2.069847 1.82274,2.074573 5.47302,1.092267 10.40569,-2.800213 22.19749,-4.472823 32.94063,-4.672466 l 3.96875,-0.07375 -0.0177,6.482292 c -0.0204,7.481695 -0.37829,10.702229 -1.95543,17.594791 -1.9421,8.487532 -4.68146,15.124113 -9.63218,23.33559 -3.49689,5.80009 -4.63785,8.360191 -5.75466,12.912326 -0.73165,2.982258 -1.01615,10.689579 -0.74713,20.240628 0.55267,19.62137 0.17168,24.92278 -2.28195,31.75282 -3.1723,8.83061 -10.11439,16.33537 -18.95129,20.48736 -4.9243,2.31366 -8.27497,2.96746 -17.01596,3.32023 -14.5021,0.58528 -22.84946,1.9445 -33.57929,5.4678 -6.88552,2.26097 -12.43234,4.76631 -17.53326,7.91928 -1.50932,0.93294 -2.79213,1.69626 -2.85069,1.69626 -0.0586,0 -0.64107,-0.8632 -1.29448,-1.91823 z m 64.42413,-43.58444 c 3.26022,-1.015 6.15088,-4.07545 6.99641,-7.40738 2.34191,-9.22864 -7.12039,-17.27584 -15.23081,-12.95303 -2.00097,1.06651 -4.32469,3.49565 -5.22654,5.46367 -0.92369,2.01567 -1.12481,5.12239 -0.47743,7.37462 1.01978,3.54779 3.94858,6.57835 7.4178,7.67552 1.63206,0.51615 4.59373,0.44648 6.52057,-0.1534 z M 192.91808,68.886955 c 6.48315,-7.552036 14.01795,-14.407994 21.9431,-19.966136 5.23923,-3.674433 9.43809,-6.160207 16.13958,-9.554835 3.56526,-1.805975 6.58429,-3.377504 6.70895,-3.492287 0.12466,-0.114783 -0.24482,-0.725827 -0.82105,-1.357875 -0.57624,-0.632049 -2.56616,-2.935117 -4.42206,-5.117929 -12.56327,-14.77629 -27.27022,-28.79636932 -33.83313,-32.2529967 -1.4817,-0.7804014 -2.08872,-0.9522112 -3.36423,-0.9522112 -1.36947,0 -1.67064,0.1003792 -2.50856,0.836078 -1.55636,1.3665018 -2.64512,3.9839493 -3.94443,9.4826718 -3.29537,13.9461171 -2.90259,35.1885321 1.06409,57.5468741 1.19675,6.745558 1.13996,6.482292 1.39828,6.482292 0.12092,0 0.85868,-0.744141 1.63946,-1.653646 z m 220.40149,89.605555 c 0.0127,-0.30823 0.0754,-0.37092 0.15985,-0.15985 0.0764,0.19099 0.067,0.4192 -0.0209,0.50711 -0.0879,0.0879 -0.15046,-0.0683 -0.13897,-0.34726 z m 0.26634,-0.7717 c 0.0276,-0.50118 0.46852,-1.3451 0.48388,-0.92604 0.008,0.21828 -0.10088,0.57546 -0.24194,0.79375 -0.14106,0.21828 -0.24994,0.27781 -0.24194,0.13229 z m 0.51057,-1.77032 c -0.002,-0.24608 0.11502,-0.521 0.26054,-0.61093 0.33485,-0.20695 0.33485,0.1433 0,0.66146 -0.22104,0.34202 -0.25704,0.33504 -0.26054,-0.0505 z M 333.28092,30.089606 c -0.0796,-0.128881 0.18121,-0.29696 0.5797,-0.373511 0.85317,-0.163897 1.13412,0.006 0.58456,0.353591 -0.49435,0.312639 -0.97823,0.320918 -1.16426,0.01992 z"
           id="path18" /></g></g></g></svg>
