<?xml version="1.0" encoding="UTF-8" standalone="no"?>
<svg
   width="1280"
   height="640"
   viewBox="0 0 1280 640"
   version="1.1"
   xmlns="http://www.w3.org/2000/svg"
   xmlns:xlink="http://www.w3.org/1999/xlink">
  <defs>
    <linearGradient id="bg-gradient" x1="0%" y1="0%" x2="100%" y2="100%">
      <stop offset="0%" style="stop-color:#2F5259;stop-opacity:1" />
      <stop offset="100%" style="stop-color:#1a3a40;stop-opacity:1" />
    </linearGradient>
    <linearGradient id="accent-gradient" x1="0%" y1="0%" x2="100%" y2="0%">
      <stop offset="0%" style="stop-color:#D98943;stop-opacity:1" />
      <stop offset="50%" style="stop-color:#BF622C;stop-opacity:1" />
      <stop offset="100%" style="stop-color:#D98471;stop-opacity:1" />
    </linearGradient>
  </defs>

  <!-- Background -->
  <rect width="1280" height="640" fill="url(#bg-gradient)"/>

  <!-- Decorative circles -->
  <circle cx="100" cy="100" r="150" fill="#D98943" opacity="0.1"/>
  <circle cx="1180" cy="540" r="200" fill="#D98471" opacity="0.1"/>

  <!-- Centered cat character -->
  <g transform="translate(90, 150)">
    <g xmlns="http://www.w3.org/2000/svg" id="layer1" transform="translate(-515.70948,-497.23656)"><g id="g10" transform="translate(509.02225,558.98763)"><path style="fill:#e6decd" d="m 347.00105,268.20341 c -3.1682,-0.81568 -5.99296,-3.04607 -7.24875,-5.7235 -0.61182,-1.30443 -0.68875,-1.79508 -0.68875,-4.3926 0,-2.84596 0.0265,-2.97783 0.99266,-4.93265 1.27359,-2.57694 3.16479,-4.47032 6.12031,-6.12737 1.25974,-0.70629 2.40709,-1.50214 2.54967,-1.76855 0.14258,-0.2664 0.25923,-2.13243 0.25923,-4.14673 0,-6.83132 -0.88142,-11.1062 -2.72081,-13.19586 -2.00135,-2.27365 -4.33455,-2.99709 -11.4344,-3.54541 -12.00283,-0.92697 -19.42483,-2.76274 -27.51666,-6.80599 -5.10062,-2.54863 -9.70891,-5.94735 -14.70344,-10.84411 -1.97501,-1.93635 -3.71284,-3.52064 -3.86185,-3.52064 -0.149,0 -2.28355,0.5398 -4.74344,1.19956 -11.0005,2.95042 -23.708,4.97077 -35.69336,5.67484 -19.5253,1.147 -41.03987,-1.74387 -62.0851,-8.34225 l -2.95064,-0.92512 -1.61338,0.83784 c -0.88736,0.46081 -3.04213,1.63284 -4.78838,2.6045 -2.88514,1.60537 -8.43784,4.31796 -11.1125,5.42864 -3.9143,1.62546 -20.38911,7.67908 -26.9875,9.91647 -11.89312,4.03275 -16.34295,6.64644 -23.41563,13.75365 -5.85503,5.88361 -8.99826,8.179 -13.39969,9.78532 -6.579388,2.40118 -14.124421,1.11817 -18.353851,-3.12101 -3.311387,-3.31902 -4.317004,-8.52816 -2.570715,-13.3164 2.069546,-5.6746 6.719487,-10.90472 15.67113,-17.62642 7.541946,-5.66318 19.264426,-15.23898 19.405866,-15.85216 0.0773,-0.33523 -0.22608,-0.37207 -1.98438,-0.24095 -4.05207,0.30219 -7.76868,0.44183 -19.008986,0.7142 -6.257396,0.15163 -12.984428,0.43668 -14.948959,0.63345 -6.346852,0.6357 -10.195816,1.99511 -14.552084,5.13964 -9.188308,6.63248 -13.380609,8.54075 -18.785418,8.55082 -5.476678,0.0102 -8.914775,-1.77884 -10.872858,-5.65778 -3.934692,-7.79458 1.685891,-18.07384 14.084858,-25.75922 3.020267,-1.87208 9.673239,-5.117 14.582559,-7.11248 9.124911,-3.709 17.733691,-7.77974 21.891051,-10.35137 5.992313,-3.7067 12.273697,-13.31362 12.879552,-19.69836 0.12684,-1.33668 -0.680352,-6.03326 -1.803588,-10.49404 -0.492891,-1.95745 -2.127132,-2.42957 -10.412614,-3.00815 -11.659961,-0.81423 -18.474134,-3.03394 -24.077084,-7.84309 -2.012985,-1.7278 -7.81049,-8.34091 -8.927657,-10.18362 -2.260976,-3.72937 -3.26764,-7.73451 -3.048129,-12.127346 0.165007,-3.302119 0.934845,-5.458914 3.476299,-9.739276 2.478938,-4.17507 2.98283,-5.324074 3.212945,-7.326349 0.100346,-0.873125 0.39438,-1.957947 0.653409,-2.410716 1.180166,-2.062867 2.853014,-6.175685 4.252893,-10.456044 2.502449,-7.651646 4.570786,-11.439892 8.051011,-14.745765 1.987917,-1.888326 4.372303,-3.469 5.239694,-3.473533 0.261276,-0.0014 0.767291,0.289761 1.124479,0.646949 0.784485,0.784485 0.839642,1.934178 0.241753,5.03911 -0.97079,5.041471 -0.742715,14.16774 0.546757,21.878089 0.971273,5.807685 1.709498,7.674505 3.865152,9.774177 1.592708,1.551346 3.983359,2.728379 6.446812,3.174076 l 1.852083,0.335087 3.175,2.9753 c 4.947365,4.636187 7.83875,6.70297 12.30317,8.794391 4.34306,2.03456 8.87786,3.19625 14.67637,3.75967 7.01963,0.68207 15.90922,-1.015 22.39693,-4.275681 2.26617,-1.138966 6.74367,-4.214385 9.09356,-6.246016 3.79295,-3.279247 6.11922,-6.318065 11.1398,-14.552032 3.91939,-6.42797 6.536,-8.261649 8.70049,-6.097158 1.26083,1.260826 1.4121,3.266489 0.66302,8.790513 -0.83173,6.133388 -0.42687,8.843724 1.57232,10.525928 1.10533,0.930078 2.55962,0.947881 4.47801,0.05482 0.77844,-0.36238 1.46305,-0.658873 1.52136,-0.658873 0.25871,0 0.0707,3.572566 -0.2741,5.208223 -0.87274,4.140216 -3.62546,10.388656 -7.86587,17.854856 -3.64621,6.41998 -4.66628,8.94096 -4.27251,10.55898 0.25518,1.04852 1.14107,1.83211 2.07131,1.83211 2.24046,0 5.43426,-2.5378 11.24094,-8.93205 1.58802,-1.74872 2.13239,-2.1847 2.72548,-2.18281 0.59324,0.002 0.81687,0.1837 1.12087,0.91128 1.17541,2.81314 -2.69497,10.48208 -8.20336,16.25452 -1.02339,1.07244 -3.46805,3.38907 -5.43258,5.14806 -10.12918,9.0694 -12.95496,12.13078 -14.69558,15.92079 -1.26154,2.74688 -1.75049,4.92738 -1.89853,8.46666 -0.28986,6.9298 1.84202,12.98525 5.99248,17.02119 3.484,3.38788 7.80509,5.86046 12.32142,7.05049 2.54073,0.66947 6.74228,0.9817 9.14919,0.6799 2.50335,-0.3139 6.39985,-1.56908 8.44008,-2.71882 2.14528,-1.20894 5.92147,-3.81475 7.13783,-4.92556 1.69932,-1.55186 3.52231,-5.20471 6.27019,-12.564 3.12869,-8.37913 5.38428,-11.34613 8.64894,-11.37678 2.38747,-0.0224 3.54161,0.91778 7.57661,6.17213 5.43448,7.07674 10.63101,10.42095 17.69249,11.38595 4.76375,0.651 9.80493,-0.14457 14.24566,-2.24817 1.35018,-0.63958 2.50058,-1.082 2.55646,-0.98314 0.0559,0.0988 0.18671,0.65044 0.29073,1.22576 0.63469,3.51028 3.94493,6.32358 8.32418,7.07454 2.85621,0.48979 5.59699,0.0167 8.62181,-1.4882 2.09663,-1.04311 2.99741,-1.67011 6.20746,-4.32079 l 0.72521,-0.59885 0.69347,1.33663 c 2.69292,5.19049 5.65263,7.65192 10.23324,8.51042 3.94586,0.73954 10.0703,-1.19724 13.60797,-4.30336 0.48492,-0.42577 1.00013,-0.77413 1.1449,-0.77413 0.14477,0 0.52965,0.62508 0.85529,1.38907 1.42291,3.33826 3.95859,6.26563 6.89357,7.95839 1.15005,0.66329 4.01235,1.52919 8.58681,2.59768 6.18235,1.44404 12.66111,0.73223 19.05,-2.093 5.11014,-2.25975 8.18801,-5.06353 12.57721,-11.4572 2.9047,-4.23124 4.54056,-5.9524 7.14909,-7.52193 2.11648,-1.27347 2.28935,-1.3281 4.729,-1.49443 1.4733,-0.10045 3.09646,-0.38825 3.88153,-0.68822 6.54208,-2.4997 13.3305,-11.77502 15.19252,-20.75821 0.30849,-1.4883 0.7113,-2.61078 1.13935,-3.175 1.43314,-1.889 2.44551,-6.72972 2.13169,-10.19281 -0.0959,-1.05862 -0.091,-1.92475 0.011,-1.92475 0.69576,0 3.11298,7.23804 5.69924,17.06562 1.03399,3.92906 2.24498,8.30023 2.6911,9.71369 1.61452,5.11549 3.1236,6.63452 7.57284,7.62277 5.86696,1.30315 7.61765,2.2575 10.05608,5.48185 2.37669,3.14271 2.95128,4.05447 5.87882,9.32857 8.81171,15.87471 12.66715,21.77413 18.30042,28.00249 4.99721,5.52511 6.46447,7.71931 7.07056,10.57355 0.96704,4.5541 -0.32733,9.11954 -3.49683,12.33383 -2.73058,2.76917 -5.52402,3.74853 -10.0792,3.53369 -4.79398,-0.22611 -9.00047,-2.04287 -13.6068,-5.87672 -3.21104,-2.67256 -4.52263,-4.35028 -13.54805,-17.33006 -3.49604,-5.02779 -6.17084,-7.94251 -8.05261,-8.7749 -2.27141,-1.00476 -4.13094,-0.62355 -14.02192,2.87451 -2.03729,0.72052 -4.5376,1.51773 -5.55625,1.7716 -1.01864,0.25387 -1.98799,0.5726 -2.15411,0.70829 -0.21866,0.1786 -0.0542,0.73736 0.59575,2.02407 1.58226,3.13242 1.824,4.55019 1.81437,10.6409 -0.009,5.67215 -0.26073,8.36727 -1.74238,18.65312 -0.99871,6.93323 -1.92515,11.76011 -2.78863,14.52918 -0.79215,2.54031 -2.60781,6.07706 -4.14462,8.07337 -2.50519,3.25424 -6.98391,6.24258 -11.15954,7.446 -2.35058,0.67743 -6.89485,0.89954 -8.73125,0.42674 z m -128.17143,-17.2818 c -0.69223,-0.88004 -0.69935,-1.79772 -0.0192,-2.47787 0.51769,-0.51769 0.88194,-0.52916 16.80104,-0.52916 15.9191,0 16.28335,0.0115 16.80104,0.52916 0.71376,0.71376 0.67624,1.88627 -0.0832,2.59972 l -0.61236,0.57528 H 235.54746 219.37799 Z M 172.1398,236.73593 c -0.95702,-0.85981 -1.02053,-1.98437 -0.16063,-2.84427 0.52376,-0.52376 0.88194,-0.52916 35.06931,-0.52916 h 34.54016 l 0.64943,0.64943 c 0.35719,0.35718 0.64943,0.95791 0.64943,1.33494 0,0.37703 -0.29224,0.97776 -0.64943,1.33494 l -0.64943,0.64944 H 207.19553 172.80242 Z M 447.29343,173.0544 c -0.61508,-0.67966 -0.64769,-2.27598 -0.0585,-2.86532 0.42288,-0.423 1.64192,-0.46455 15.59267,-0.53144 10.49232,-0.0503 15.34784,0.016 15.83137,0.21632 0.68722,0.28466 1.29525,1.22228 1.29525,1.99739 0,0.21805 -0.29225,0.68869 -0.64943,1.04588 l -0.64944,0.64943 h -15.44914 c -14.94319,0 -15.46433,-0.0168 -15.91274,-0.51226 z m -30.1778,-29.16201 c -1.33565,-0.73054 -1.56229,-1.99269 -0.54119,-3.01379 l 0.64943,-0.64944 h 33.44614 c 33.43593,0 33.44635,1.7e-4 34.14328,0.54837 0.4943,0.38882 0.69596,0.79297 0.69309,1.38907 -0.005,0.9888 -0.18825,1.31525 -0.97075,1.72712 -0.80337,0.42286 -66.64682,0.42156 -67.42,-0.001 z M 386.2558,37.245261 c -0.72191,-2.31855 -0.99332,-2.677668 -2.32528,-3.076731 -1.93124,-0.578613 -3.01031,-1.121648 -2.7487,-1.383258 0.13829,-0.138296 1.06851,-0.485106 2.06714,-0.77069 0.99864,-0.285585 1.91505,-0.618589 2.03647,-0.740009 0.12142,-0.121421 0.48875,-1.156181 0.8163,-2.299468 0.32754,-1.143287 0.72688,-2.122488 0.88743,-2.176003 0.16576,-0.05526 0.5946,0.873574 0.99239,2.149416 0.38527,1.235694 0.84727,2.341094 1.02666,2.456443 0.17939,0.11535 1.15061,0.448531 2.15826,0.740403 1.00765,0.291872 1.87462,0.661041 1.9266,0.820377 0.0532,0.162977 -0.8061,0.552198 -1.96438,0.889793 -1.13239,0.330051 -2.19722,0.735467 -2.36628,0.900924 -0.16906,0.165458 -0.55963,1.159242 -0.86793,2.20841 -0.30829,1.049168 -0.66837,1.974224 -0.80017,2.055679 -0.1318,0.08146 -0.50913,-0.717423 -0.83851,-1.775286 z M 273.58831,18.022347 c -0.29834,-1.001771 -0.69034,-1.942723 -0.8711,-2.091005 -0.18077,-0.148282 -1.19175,-0.530837 -2.24663,-0.850123 -1.05488,-0.319285 -1.86323,-0.669083 -1.79633,-0.777328 0.0669,-0.108245 0.89162,-0.405236 1.83272,-0.65998 0.9411,-0.254744 1.8822,-0.660635 2.09133,-0.901979 0.20914,-0.241345 0.63787,-1.302012 0.95276,-2.357038 0.31488,-1.0550257 0.66979,-1.9182288 0.78869,-1.9182288 0.1189,0 0.47339,0.8851903 0.78775,1.9670898 0.31436,1.081899 0.74777,2.143301 0.96314,2.358671 0.21537,0.21537 1.22668,0.606707 2.24735,0.869637 1.02067,0.262931 1.85576,0.564485 1.85576,0.67012 0,0.105635 -0.92273,0.469855 -2.05052,0.809376 -2.24785,0.676719 -2.64918,1.118383 -3.25097,3.57771 -0.15133,0.618464 -0.38459,1.124479 -0.51834,1.124479 -0.13375,0 -0.48727,-0.81963 -0.78561,-1.821401 z M 12.162714,8.0484565 C 12.019936,7.6729209 11.76857,6.8097178 11.604124,6.1302274 11.439677,5.450737 11.197664,4.7757278 11.066317,4.630207 10.93497,4.4846861 9.9167035,4.0679674 8.8035027,3.7041653 7.6903019,3.3403632 6.7389243,2.9132386 6.6893302,2.7549994 6.639608,2.5963514 7.4768706,2.2122621 8.5558078,1.8987637 9.6319646,1.5860732 10.660828,1.1514584 10.842172,0.93295295 11.023515,0.7144475 11.426414,-0.29787838 11.737502,-1.3166601 12.04859,-2.3354418 12.42218,-3.18195 12.5677,-3.1977893 c 0.145521,-0.015839 0.476361,0.6674177 0.735199,1.5183488 0.816259,2.6834531 0.923334,2.8019186 3.191955,3.5315225 1.131201,0.3638021 2.079574,0.7767272 2.107496,0.9176114 0.02792,0.1408843 -0.810674,0.5005626 -1.863548,0.7992853 -1.052873,0.2987226 -2.07982,0.719235 -2.282104,0.9344718 -0.202284,0.2152369 -0.624191,1.2545429 -0.937571,2.3095689 -0.605372,2.0380455 -0.936571,2.339705 -1.356413,1.2354371 z M 175.68333,0.08322776 c -0.21828,-0.0828199947 -0.65859,-0.38850455 -0.97846,-0.67929901 -2.30499,-2.09544625 0.90967,-5.56573165 3.2728,-3.53305265 1.00005,0.860208 1.03869,2.5085703 0.0809,3.45144587 -0.69416,0.68335188 -1.71648,1.01085107 -2.37524,0.76090579 z M 327.49821,-11.614591 c -1.74875,-1.562513 -0.77485,-4.26041 1.53795,-4.26041 1.62079,0 2.91169,1.89963 2.26115,3.32741 -0.32355,0.710123 -1.76583,1.69714 -2.48219,1.698684 -0.25237,5.44e-4 -0.84498,-0.344014 -1.31691,-0.765684 z m 95.22422,-17.683698 c -0.0651,-0.111515 -0.6786,-2.048222 -1.36339,-4.303795 -0.68479,-2.255573 -1.38392,-4.236856 -1.55362,-4.402852 -0.16969,-0.165995 -2.12424,-0.870781 -4.34343,-1.566192 -2.23363,-0.699935 -4.0349,-1.40489 -4.0349,-1.579124 0,-0.282239 7.07163,-2.774208 7.86526,-2.771634 0.56876,0.0018 1.04238,-1.093353 2.1735,-5.026031 0.60689,-2.110052 1.21309,-3.946835 1.3471,-4.081741 0.31976,-0.321882 0.80516,0.868793 2.00618,4.921057 0.53169,1.793949 1.15904,3.449355 1.39411,3.678681 0.23506,0.229326 1.37989,0.703069 2.54406,1.052763 3.28627,0.987132 5.74163,1.943622 5.73596,2.234448 -0.003,0.145521 -1.53271,0.760373 -3.39973,1.366338 -5.61832,1.823507 -5.02427,1.444534 -5.65765,3.609252 -1.03686,3.543691 -2.15007,6.796517 -2.37315,6.934386 -0.1221,0.07546 -0.27523,0.04596 -0.3403,-0.06556 z m -222.61319,-6.614468 -0.7457,-2.319535 -2.11048,-0.709034 c -1.16076,-0.389969 -2.151,-0.830605 -2.20052,-0.979191 -0.0495,-0.148586 0.78112,-0.530639 1.84589,-0.849006 1.06477,-0.318368 2.07825,-0.690567 2.25217,-0.82711 0.17393,-0.136543 0.51031,-0.864175 0.74752,-1.616959 0.69869,-2.217335 0.96918,-2.825134 1.19511,-2.685501 0.11718,0.07242 0.52578,1.070686 0.90799,2.218358 l 0.69493,2.086678 2.2363,0.697242 c 1.22996,0.383484 2.2363,0.802681 2.2363,0.93155 0,0.12887 -0.94357,0.548545 -2.09682,0.932612 -1.15325,0.384067 -2.2083,0.840329 -2.34456,1.013915 -0.13626,0.173587 -0.50397,1.172772 -0.81714,2.220412 -0.31316,1.04764 -0.67871,1.972368 -0.81234,2.054952 -0.13362,0.08258 -0.57851,-0.893639 -0.98865,-2.169383 z m -161.657685,0.338182 c -1.613058,-0.703032 -1.922337,-2.582856 -0.636498,-3.868695 1.039815,-1.039815 2.175891,-1.039815 3.215705,0 0.999009,0.999008 1.048004,2.29261 0.124573,3.289009 -0.356853,0.385051 -0.763834,0.700094 -0.904402,0.700094 -0.140567,0 -0.414143,0.05519 -0.607946,0.122644 -0.193803,0.06745 -0.729947,-0.04192 -1.191432,-0.243052 z m 62.659655,-16.472897 c -0.15846,-0.296085 -0.36777,-1.036479 -0.46513,-1.64532 -0.23711,-1.482827 -0.761673,-2.04341 -2.438835,-2.606307 -0.774606,-0.259976 -1.391549,-0.587549 -1.370983,-0.727939 0.02056,-0.14039 0.713102,-0.434274 1.538971,-0.653076 l 1.501579,-0.397823 0.611778,-1.718844 c 0.33648,-0.945364 0.71127,-1.819022 0.83286,-1.941462 0.12159,-0.12244 0.50189,0.645891 0.84512,1.707401 l 0.62405,1.930019 1.85208,0.550734 c 2.01588,0.599438 2.01207,0.637585 -0.13229,1.32591 -0.80036,0.256912 -1.59749,0.579571 -1.7714,0.717019 -0.1739,0.137449 -0.4547,0.925366 -0.62398,1.750929 -0.41732,2.035144 -0.63282,2.401979 -1.00382,1.708759 z" id="path13" /><path style="fill:#ca723f" d="m 455.02607,271.79629 c 0.76886,-0.0536 1.95948,-0.053 2.64583,10e-4 0.68635,0.0543 0.0573,0.0982 -1.39793,0.0975 -1.45521,-6.9e-4 -2.01677,-0.0451 -1.2479,-0.0987 z m 4.62497,0.006 c 0.40219,-0.0608 0.9975,-0.0592 1.32292,0.004 0.32542,0.0628 -0.004,0.11256 -0.73124,0.11058 -0.72761,-0.002 -0.99386,-0.0534 -0.59168,-0.11419 z m 3.97015,0.007 c 0.25743,-0.0671 0.61462,-0.0627 0.79375,0.01 0.17913,0.0725 -0.0315,0.12736 -0.46806,0.12197 -0.43656,-0.005 -0.58312,-0.0647 -0.32569,-0.13177 z m 4.49652,-0.007 c 0.40218,-0.0608 0.9975,-0.0592 1.32292,0.004 0.32542,0.0628 -0.004,0.11256 -0.73125,0.11058 -0.7276,-0.002 -0.99385,-0.0534 -0.59167,-0.11419 z m 3.96511,0.007 c 0.25466,-0.0666 0.67138,-0.0666 0.92604,0 0.25467,0.0666 0.0463,0.121 -0.46302,0.121 -0.50932,0 -0.71768,-0.0544 -0.46302,-0.121 z m 5.03212,-9.7e-4 c 0.25743,-0.0671 0.61462,-0.0627 0.79375,0.01 0.17913,0.0725 -0.0315,0.12736 -0.46805,0.12197 -0.43657,-0.005 -0.58313,-0.0647 -0.3257,-0.13177 z m 3.96875,0 c 0.25743,-0.0671 0.61462,-0.0627 0.79375,0.01 0.17913,0.0725 -0.0315,0.12736 -0.46805,0.12197 -0.43657,-0.005 -0.58313,-0.0647 -0.3257,-0.13177 z m 2.50261,-0.008 c 0.46969,-0.0584 1.30313,-0.0594 1.85208,-0.002 0.54895,0.0573 0.16465,0.1051 -0.85399,0.10627 -1.01865,0.001 -1.46779,-0.0457 -0.99809,-0.10414 z m 7.16618,0.0102 c 0.191,-0.0764 0.4192,-0.067 0.50712,0.0209 0.0879,0.0879 -0.0683,0.15045 -0.34726,0.13896 -0.30823,-0.0127 -0.37092,-0.0754 -0.15986,-0.15985 z m 1.97583,-0.0141 c 0.69561,-0.0547 1.76717,-0.054 2.38125,10e-4 0.61407,0.0555 0.0449,0.10023 -1.26476,0.0994 -1.30968,-8.1e-4 -1.81211,-0.0462 -1.11649,-0.10089 z m -170.73039,-1.47549 c 0,-0.0455 0.38695,-0.43249 0.8599,-0.85989 l 0.85989,-0.77711 -0.7771,0.8599 c -0.72437,0.80154 -0.94269,0.98151 -0.94269,0.7771 z m 25.61498,-1.95003 c 0.19099,-0.0764 0.4192,-0.067 0.50711,0.0209 0.0879,0.0879 -0.0683,0.15045 -0.34726,0.13896 -0.30823,-0.0127 -0.37092,-0.0754 -0.15985,-0.15985 z m 5.02708,0 c 0.191,-0.0764 0.4192,-0.067 0.50712,0.0209 0.0879,0.0879 -0.0684,0.15045 -0.34727,0.13896 -0.30822,-0.0127 -0.37092,-0.0754 -0.15985,-0.15985 z m 151.39128,-0.97749 c 0,-0.0549 0.20836,-0.2633 0.46302,-0.46302 0.41965,-0.32911 0.429,-0.31975 0.0999,0.0999 -0.34565,0.44073 -0.56292,0.58089 -0.56292,0.36313 z m -161.69417,-1.42146 c -0.32911,-0.41964 -0.31975,-0.429 0.0999,-0.0999 0.25467,0.19971 0.46303,0.40807 0.46303,0.46302 0,0.21776 -0.21728,0.0776 -0.56292,-0.36313 z m -17.36203,-1.78594 c 0.003,-0.58208 0.0571,-0.78905 0.12041,-0.45993 0.0633,0.32912 0.0609,0.80537 -0.005,1.05833 -0.0662,0.25297 -0.11801,-0.0163 -0.11507,-0.5984 z m 15.77453,0.19844 c -0.32911,-0.41964 -0.31975,-0.429 0.0999,-0.0999 0.25467,0.19972 0.46303,0.40807 0.46303,0.46302 0,0.21776 -0.21728,0.0776 -0.56292,-0.36313 z m 22.52333,-0.43062 c 0,-0.055 0.20836,-0.2633 0.46302,-0.46302 0.41965,-0.32911 0.42901,-0.31975 0.0999,0.0999 -0.34565,0.44073 -0.56292,0.58089 -0.56292,0.36313 z m 25.85805,-1.24423 c 0.0936,-0.35777 0.2135,-0.47771 0.27955,-0.27955 0.0636,0.19088 -0.0101,0.47285 -0.16386,0.6266 -0.19634,0.19634 -0.23077,0.093 -0.11569,-0.34705 z m -112.64138,0.1818 c 0,-0.0572 0.18477,-0.17489 0.41061,-0.26155 0.23546,-0.0904 0.34166,-0.046 0.24897,0.10399 -0.15538,0.2514 -0.65958,0.37185 -0.65958,0.15756 z m 230.73756,-2.69619 c 0.0127,-0.30822 0.0754,-0.37091 0.15985,-0.15985 0.0764,0.191 0.067,0.4192 -0.0209,0.50712 -0.0879,0.0879 -0.15045,-0.0683 -0.13896,-0.34727 z m -118.50265,-0.7717 c 0.005,-0.43656 0.0647,-0.58312 0.13178,-0.32569 0.0671,0.25743 0.0627,0.61462 -0.01,0.79375 -0.0725,0.17913 -0.12736,-0.0315 -0.12197,-0.46806 z m -49.99644,-1.19062 c 0,-0.50932 0.0544,-0.71768 0.121,-0.46302 0.0666,0.25466 0.0666,0.67138 0,0.92604 -0.0666,0.25466 -0.121,0.0463 -0.121,-0.46302 z m -16.3584,-0.33073 -0.50403,-0.59531 0.59531,0.50402 c 0.55945,0.47367 0.71576,0.6866 0.50403,0.6866 -0.0502,0 -0.3181,-0.26789 -0.59531,-0.59531 z M 285.75,258.1319 c 0,-0.0558 0.23829,-0.16375 0.52953,-0.23991 0.29125,-0.0762 0.46281,-0.0305 0.38126,0.10143 -0.14241,0.23043 -0.91079,0.34725 -0.91079,0.13848 z m 102.9647,-2.01524 c 0,-0.3638 0.06,-0.51263 0.13345,-0.33073 0.0734,0.1819 0.0734,0.47956 0,0.66146 -0.0734,0.1819 -0.13345,0.0331 -0.13345,-0.33073 z m 42.69936,0.28227 c -0.10506,-0.17 -0.003,-0.21168 0.26662,-0.10839 0.2453,0.0941 0.55061,0.006 0.69534,-0.20147 0.21473,-0.30732 0.23987,-0.30269 0.14981,0.0276 -0.13058,0.47892 -0.87364,0.66757 -1.11177,0.28227 z m -119.05818,-0.25759 c -0.0815,-0.13195 0.09,-0.1776 0.38126,-0.10144 0.6178,0.16156 0.69589,0.34134 0.14827,0.34134 -0.20969,0 -0.44798,-0.10795 -0.52953,-0.2399 z m 107.65929,-0.83603 c -0.0959,-0.1552 -0.11766,-0.33893 -0.0483,-0.40829 0.0694,-0.0693 0.1966,0.0576 0.28277,0.28219 0.17891,0.46622 0.0264,0.54823 -0.23447,0.1261 z m 4.3269,-0.69231 c 0.19099,-0.0764 0.41919,-0.067 0.50711,0.0209 0.0879,0.0879 -0.0684,0.15046 -0.34726,0.13897 -0.30823,-0.0127 -0.37092,-0.0754 -0.15985,-0.15986 z m 2.38125,0 c 0.19099,-0.0764 0.41919,-0.067 0.50711,0.0209 0.0879,0.0879 -0.0684,0.15046 -0.34726,0.13897 -0.30823,-0.0127 -0.37092,-0.0754 -0.15985,-0.15986 z m -205.86238,-2.92107 c 0.47294,-0.0587 1.24685,-0.0587 1.71979,0 0.47294,0.0587 0.086,0.10671 -0.8599,0.10671 -0.94588,0 -1.33283,-0.048 -0.85989,-0.10671 z m 20.38945,0.0107 c 0.191,-0.0764 0.4192,-0.067 0.50712,0.0209 0.0879,0.0879 -0.0684,0.15045 -0.34727,0.13896 -0.30822,-0.0127 -0.37092,-0.0754 -0.15985,-0.15985 z m 10.89753,-0.44832 c 0,-0.0549 0.20836,-0.2633 0.46302,-0.46302 0.41964,-0.32911 0.429,-0.31975 0.0999,0.0999 -0.34564,0.44073 -0.56291,0.58089 -0.56291,0.36313 z m 89.16459,-0.52917 c 0,-0.0549 0.20835,-0.2633 0.46302,-0.46302 0.41964,-0.32911 0.429,-0.31975 0.0999,0.0999 -0.34564,0.44073 -0.56291,0.58089 -0.56291,0.36313 z m -50.27084,-0.52917 c 0,-0.0549 0.20836,-0.2633 0.46302,-0.46302 0.41964,-0.3291 0.429,-0.31975 0.0999,0.0999 -0.34565,0.44073 -0.56292,0.58088 -0.56292,0.36312 z m 144.72709,-0.77664 c 0,-0.0455 0.38695,-0.43249 0.85989,-0.8599 l 0.8599,-0.7771 -0.7771,0.85989 c -0.72438,0.80155 -0.94269,0.98151 -0.94269,0.77711 z m -208.29324,-1.703 c 4.40201,-0.0407 11.60529,-0.0407 16.00729,0 4.40201,0.0407 0.80037,0.074 -8.00364,0.074 -8.80401,0 -12.40565,-0.0333 -8.00365,-0.074 z m 274.93449,-0.26473 c -0.32911,-0.41965 -0.31975,-0.429 0.0999,-0.0999 0.25466,0.19972 0.46302,0.40808 0.46302,0.46302 0,0.21776 -0.21727,0.0776 -0.56292,-0.36312 z m -130.12037,-0.48507 c 0.0127,-0.30823 0.0754,-0.37092 0.15986,-0.15985 0.0764,0.19099 0.067,0.41919 -0.0209,0.50711 -0.0879,0.0879 -0.15045,-0.0684 -0.13897,-0.34726 z m 20.8812,-0.24254 c 0.34177,-0.3638 0.68094,-0.66146 0.7537,-0.66146 0.0728,0 -0.14734,0.29766 -0.48912,0.66146 -0.34177,0.36381 -0.68094,0.66146 -0.7537,0.66146 -0.0728,0 0.14735,-0.29765 0.48912,-0.66146 z m -95.29961,0.21614 c 0.19099,-0.0764 0.4192,-0.067 0.50712,0.0209 0.0879,0.0879 -0.0684,0.15045 -0.34727,0.13896 -0.30822,-0.0127 -0.37092,-0.0754 -0.15985,-0.15985 z m 3.175,0 c 0.19099,-0.0764 0.4192,-0.067 0.50712,0.0209 0.0879,0.0879 -0.0684,0.15045 -0.34727,0.13896 -0.30822,-0.0127 -0.37092,-0.0754 -0.15985,-0.15985 z m 113.9276,-0.67916 -0.50403,-0.59531 0.59531,0.50403 c 0.55945,0.47366 0.71576,0.68659 0.50403,0.68659 -0.0502,0 -0.3181,-0.26789 -0.59531,-0.59531 z m 36.58794,-1.00021 c 0.17319,-0.22269 0.35952,-1.05613 0.41408,-1.85208 l 0.0992,-1.44719 0.0489,1.48896 c 0.0376,1.14367 -0.0584,1.57317 -0.41407,1.85208 -0.40529,0.31785 -0.42376,0.31264 -0.14814,-0.0418 z m -102.82004,-0.67548 c 0.0127,-0.30823 0.0754,-0.37092 0.15985,-0.15985 0.0764,0.19099 0.067,0.41919 -0.0209,0.50711 -0.0879,0.0879 -0.15045,-0.0684 -0.13896,-0.34726 z m 94.91492,0.23818 c 0.191,-0.0764 0.4192,-0.067 0.50712,0.0209 0.0879,0.0879 -0.0684,0.15045 -0.34727,0.13896 -0.30822,-0.0127 -0.37092,-0.0754 -0.15985,-0.15985 z m 2.36471,-0.27057 c 0.32743,-0.0631 0.86321,-0.0631 1.19063,0 0.32742,0.0631 0.0595,0.11467 -0.59531,0.11467 -0.65485,0 -0.92274,-0.0516 -0.59532,-0.11467 z m 46.28004,0.0103 c -0.097,-0.097 -0.17457,-0.30537 -0.17234,-0.46302 0.003,-0.18049 0.0786,-0.1694 0.2053,0.0299 0.11069,0.17411 0.97207,0.35953 1.91418,0.41204 l 1.71293,0.0955 -1.74184,0.051 c -0.95801,0.028 -1.82122,-0.0284 -1.91823,-0.12541 z m -90.44892,-2.3856 c 0.191,-0.0764 0.4192,-0.067 0.50712,0.0209 0.0879,0.0879 -0.0684,0.15045 -0.34727,0.13896 -0.30822,-0.0127 -0.37092,-0.0754 -0.15985,-0.15985 z m -28.5045,-1.5611 c 0.0127,-0.30823 0.0754,-0.37092 0.15985,-0.15985 0.0764,0.19099 0.067,0.41919 -0.0209,0.50711 -0.0879,0.0879 -0.15045,-0.0684 -0.13896,-0.34726 z m 78.84583,0 c 0.0127,-0.30823 0.0754,-0.37092 0.15986,-0.15985 0.0764,0.19099 0.067,0.41919 -0.0209,0.50711 -0.0879,0.0879 -0.15045,-0.0684 -0.13897,-0.34726 z m -78.58125,-1.85209 c 0.0127,-0.30822 0.0754,-0.37091 0.15985,-0.15985 0.0764,0.191 0.067,0.4192 -0.0209,0.50712 -0.0879,0.0879 -0.15046,-0.0684 -0.13897,-0.34727 z m -24.84014,-1.56545 c 0.005,-0.43656 0.0647,-0.58312 0.13177,-0.32569 0.0671,0.25743 0.0627,0.61462 -0.01,0.79375 -0.0725,0.17913 -0.12736,-0.0315 -0.12197,-0.46806 z m 25.10472,-0.28663 c 0.0127,-0.30822 0.0754,-0.37092 0.15986,-0.15985 0.0764,0.191 0.067,0.4192 -0.0209,0.50712 -0.0879,0.0879 -0.15045,-0.0684 -0.13897,-0.34727 z m -202.19631,-0.30868 c -0.3291,-0.41964 -0.31975,-0.429 0.0999,-0.0999 0.25466,0.19972 0.46302,0.40807 0.46302,0.46302 0,0.21776 -0.21727,0.0776 -0.56292,-0.36313 z m 176.79631,-2.07257 c 0.0127,-0.30822 0.0754,-0.37092 0.15986,-0.15985 0.0764,0.191 0.067,0.4192 -0.0209,0.50712 -0.0879,0.0879 -0.15046,-0.0684 -0.13897,-0.34727 z m -234.44173,0.0716 c 0,-0.0455 0.38696,-0.43249 0.8599,-0.85989 l 0.85989,-0.77711 -0.7771,0.8599 c -0.72437,0.80154 -0.94269,0.98151 -0.94269,0.7771 z m 68.06407,-1.43842 c 4.47476,-0.0407 11.79711,-0.0407 16.27187,0 4.47477,0.0407 0.8136,0.0739 -8.13593,0.0739 -8.94954,0 -12.61071,-0.0333 -8.13594,-0.0739 z m 27.66413,5.3e-4 c 1.79098,-0.0458 4.64848,-0.0457 6.35,3.1e-4 1.70153,0.046 0.23618,0.0835 -3.25632,0.0833 -3.4925,-1.7e-4 -4.88465,-0.0378 -3.09368,-0.0837 z m 9.77441,0.0225 c 0.1819,-0.0734 0.47956,-0.0734 0.66146,0 0.1819,0.0734 0.0331,0.13345 -0.33073,0.13345 -0.3638,0 -0.51263,-0.06 -0.33073,-0.13345 z m 128.67454,-0.2437 c 0.0127,-0.30822 0.0754,-0.37092 0.15985,-0.15985 0.0764,0.191 0.067,0.4192 -0.0209,0.50712 -0.0879,0.0879 -0.15045,-0.0684 -0.13896,-0.34727 z m 82.33571,0.23557 c 0.25743,-0.0671 0.61462,-0.0627 0.79375,0.01 0.17913,0.0725 -0.0315,0.12736 -0.46805,0.12197 -0.43657,-0.005 -0.58313,-0.0647 -0.3257,-0.13178 z M 117.475,231.11354 c 0.34177,-0.36381 0.68094,-0.66146 0.7537,-0.66146 0.0728,0 -0.14735,0.29765 -0.48912,0.66146 -0.34177,0.3638 -0.68094,0.66146 -0.7537,0.66146 -0.0728,0 0.14734,-0.29766 0.48912,-0.66146 z m 257.19589,-0.0221 c 0.0127,-0.30823 0.0754,-0.37092 0.15986,-0.15985 0.0764,0.19099 0.067,0.4192 -0.0209,0.50711 -0.0879,0.0879 -0.15045,-0.0684 -0.13897,-0.34726 z m 83.05829,-1.03629 c 0.49365,-0.50932 0.95708,-0.92604 1.02984,-0.92604 0.0728,0 -0.27161,0.41672 -0.76526,0.92604 -0.49366,0.50933 -0.95709,0.92605 -1.02985,0.92605 -0.0728,0 0.27161,-0.41672 0.76527,-0.92605 z m 28.01208,-0.33073 c -0.32911,-0.41964 -0.31975,-0.429 0.0999,-0.0999 0.25466,0.19972 0.46302,0.40808 0.46302,0.46302 0,0.21776 -0.21727,0.0776 -0.56292,-0.36313 z m -110.80578,-0.74965 c 0.0127,-0.30822 0.0754,-0.37092 0.15985,-0.15985 0.0764,0.191 0.067,0.4192 -0.0209,0.50712 -0.0879,0.0879 -0.15045,-0.0684 -0.13896,-0.34727 z m 0.28547,-2.49149 c 0,-0.3638 0.06,-0.51263 0.13345,-0.33073 0.0734,0.1819 0.0734,0.47956 0,0.66146 -0.0734,0.1819 -0.13345,0.0331 -0.13345,-0.33073 z m -36.60389,-1.76824 c 0.191,-0.0764 0.4192,-0.067 0.50712,0.0209 0.0879,0.0879 -0.0684,0.15045 -0.34727,0.13896 -0.30822,-0.0127 -0.37091,-0.0754 -0.15985,-0.15985 z m -3.05421,-0.2672 c 0.25743,-0.0671 0.61462,-0.0627 0.79375,0.01 0.17913,0.0725 -0.0315,0.12736 -0.46805,0.12197 -0.43657,-0.005 -0.58313,-0.0647 -0.3257,-0.13178 z m 133.22922,0.003 c 0.19099,-0.0764 0.4192,-0.067 0.50712,0.0209 0.0879,0.0879 -0.0684,0.15046 -0.34727,0.13897 -0.30822,-0.0127 -0.37092,-0.0754 -0.15985,-0.15986 z m -136.6688,-0.26719 c 0.25743,-0.0671 0.61462,-0.0627 0.79375,0.01 0.17913,0.0725 -0.0315,0.12736 -0.46806,0.12197 -0.43656,-0.005 -0.58312,-0.0647 -0.32569,-0.13177 z m 139.1658,-0.006 c 0.40018,-0.0606 1.05503,-0.0606 1.45521,0 0.40018,0.0606 0.0728,0.11023 -0.7276,0.11023 -0.80037,0 -1.12779,-0.0496 -0.72761,-0.11023 z m 26.8583,0.002 c 0.32912,-0.0633 0.80537,-0.0609 1.05833,0.005 0.25296,0.0662 -0.0163,0.11801 -0.5984,0.11507 -0.58208,-0.003 -0.78905,-0.0571 -0.45993,-0.12041 z m -168.52614,-0.25819 c 0.19099,-0.0764 0.4192,-0.067 0.50712,0.0209 0.0879,0.0879 -0.0684,0.15045 -0.34727,0.13896 -0.30822,-0.0127 -0.37092,-0.0754 -0.15985,-0.15985 z m 45.8643,-0.34843 c 0,-0.3638 0.0601,-0.51263 0.13345,-0.33073 0.0734,0.1819 0.0734,0.47956 0,0.66146 -0.0734,0.1819 -0.13345,0.0331 -0.13345,-0.33073 z m -47.98097,0.0838 c 0.191,-0.0764 0.4192,-0.067 0.50712,0.0209 0.0879,0.0879 -0.0684,0.15046 -0.34727,0.13897 -0.30822,-0.0127 -0.37092,-0.0754 -0.15985,-0.15986 z m -1.85208,-0.26458 c 0.19099,-0.0764 0.4192,-0.067 0.50712,0.0209 0.0879,0.0879 -0.0684,0.15045 -0.34727,0.13896 -0.30822,-0.0127 -0.37092,-0.0754 -0.15985,-0.15985 z m 168.69635,-0.94374 -0.50403,-0.59531 0.59532,0.50403 c 0.55944,0.47366 0.71576,0.6866 0.50402,0.6866 -0.0502,0 -0.31809,-0.2679 -0.59531,-0.59532 z m -118.56482,-4.03489 c 0.002,-0.72761 0.0534,-0.99386 0.11419,-0.59168 0.0608,0.40219 0.0592,0.9975 -0.004,1.32292 -0.0628,0.32542 -0.11256,-0.004 -0.11058,-0.73124 z m -0.31937,-3.9908 c 0.0127,-0.30823 0.0754,-0.37092 0.15986,-0.15985 0.0764,0.19099 0.067,0.4192 -0.0209,0.50711 -0.0879,0.0879 -0.15045,-0.0684 -0.13897,-0.34726 z m 119.17391,-0.11024 c 0.26339,-0.29105 0.53842,-0.52917 0.61118,-0.52917 0.0728,0 -0.0832,0.23812 -0.34659,0.52917 -0.26339,0.29104 -0.53842,0.52916 -0.61118,0.52916 -0.0728,0 0.0832,-0.23812 0.34659,-0.52916 z m 7.64778,-0.0661 -0.50403,-0.59531 0.59532,0.50403 c 0.55944,0.47366 0.71576,0.68659 0.50402,0.68659 -0.0502,0 -0.31809,-0.26789 -0.59531,-0.59531 z M 296.035,210.14531 c -0.3291,-0.41965 -0.31974,-0.429 0.0999,-0.0999 0.25466,0.19972 0.46302,0.40808 0.46302,0.46302 0,0.21777 -0.21727,0.0776 -0.56292,-0.36312 z m -3.67806,-3.43959 -1.71215,-1.78593 1.78594,1.71215 c 1.65886,1.59031 1.90689,1.85972 1.71215,1.85972 -0.0406,0 -0.84426,-0.80367 -1.78594,-1.78594 z m -247.306599,1.33801 c 0.257431,-0.0671 0.614619,-0.0627 0.79375,0.01 0.179132,0.0725 -0.03149,0.12736 -0.468056,0.12197 -0.436562,-0.005 -0.583125,-0.0647 -0.325694,-0.13177 z m 2.77309,0.008 c 0.181901,-0.0734 0.479557,-0.0734 0.661458,0 0.181901,0.0734 0.03307,0.13345 -0.330729,0.13345 -0.363802,0 -0.51263,-0.0601 -0.330729,-0.13345 z m -10.81552,-3.72738 c -0.329108,-0.41964 -0.319749,-0.429 0.09989,-0.0999 0.254661,0.19972 0.46302,0.40808 0.46302,0.46302 0,0.21776 -0.217272,0.0776 -0.562915,-0.36313 z m -2.326613,-5.24756 c 0.0127,-0.30823 0.07539,-0.37092 0.159852,-0.15986 0.07643,0.191 0.06703,0.4192 -0.02089,0.50712 -0.08792,0.0879 -0.150453,-0.0684 -0.138964,-0.34726 z m 0,-3.96875 c 0.0127,-0.30823 0.07539,-0.37092 0.159852,-0.15986 0.07643,0.191 0.06703,0.4192 -0.02089,0.50712 -0.08792,0.0879 -0.150453,-0.0684 -0.138964,-0.34726 z m 42.775468,-0.55006 c 0.181901,-0.0734 0.479557,-0.0734 0.661458,0 0.181901,0.0734 0.03307,0.13345 -0.330729,0.13345 -0.363802,0 -0.512631,-0.0601 -0.330729,-0.13345 z m 2.645833,-0.26458 c 0.181901,-0.0734 0.479557,-0.0734 0.661458,0 0.181901,0.0734 0.03307,0.13345 -0.330729,0.13345 -0.363802,0 -0.51263,-0.0601 -0.330729,-0.13345 z m 3.178085,-0.27649 c 0.329118,-0.0633 0.805368,-0.0609 1.058333,0.005 0.252965,0.0662 -0.01631,0.11801 -0.598397,0.11507 -0.582083,-0.003 -0.789055,-0.0571 -0.459936,-0.12041 z m 7.53754,-0.27297 c 0.836745,-0.0525 2.205964,-0.0525 3.042709,0 0.836745,0.0525 0.152135,0.0955 -1.521354,0.0955 -1.67349,0 -2.358099,-0.043 -1.521355,-0.0955 z m 24.961696,-0.17035 c 0.11385,-0.29669 -0.0982,-0.41918 -0.86293,-0.49843 l -1.01387,-0.10508 1.12448,-0.0445 c 0.82326,-0.0326 1.12448,0.0577 1.12448,0.33679 0,0.20969 -0.1177,0.454 -0.26155,0.5429 -0.14752,0.0912 -0.19574,-0.01 -0.11061,-0.2317 z m -13.84121,-0.0935 c 0.69561,-0.0547 1.76718,-0.054 2.38125,0.001 0.61407,0.0555 0.0449,0.10023 -1.26476,0.0994 -1.30968,-8.1e-4 -1.81211,-0.0462 -1.11649,-0.10089 z m 7.53264,-0.2565 c 0.32742,-0.0631 0.8632,-0.0631 1.19063,0 0.32742,0.0631 0.0595,0.11466 -0.59532,0.11466 -0.65484,0 -0.92273,-0.0516 -0.59531,-0.11466 z m 213.55367,-4.065 c -1.45203,-0.21339 -3.53784,-0.68606 -6.17284,-1.39886 l -1.30928,-0.35418 1.20516,-0.13584 c 2.90593,-0.32754 5.85866,-2.51096 7.32042,-5.41317 0.99649,-1.97843 1.46191,-4.21021 2.30818,-11.0681 1.58439,-12.83954 3.34755,-18.43466 8.47269,-26.88677 2.07529,-3.42245 3.50942,-5.23059 6.58875,-8.30699 4.24532,-4.24129 7.14108,-6.0708 14.65459,-9.25861 6.8394,-2.90181 8.6933,-4.529 8.96111,-7.86528 0.30358,-3.78201 -0.89505,-5.21242 -7.87277,-9.39504 -5.67407,-3.40119 -7.70573,-5.56691 -10.73614,-11.444603 -1.54824,-3.002915 -3.69021,-5.351488 -5.2844,-5.794104 -1.43948,-0.39966 -3.28348,-0.362633 -4.57146,0.0918 -1.51608,0.534902 -3.91822,2.221387 -5.34168,3.750257 -4.11429,4.41897 -5.8132,9.3048 -7.926,22.79414 -1.095,6.99106 -1.85913,10.28824 -3.14706,13.57945 -1.33182,3.40337 -3.2103,6.25906 -7.25845,11.0344 -3.85064,4.54235 -4.66309,5.73758 -6.41424,9.43631 -2.50855,5.29847 -3.55368,9.6721 -3.55368,14.87127 0,2.92318 0.45862,6.04385 1.17922,8.02398 0.18535,0.50932 0.4238,1.16416 0.52989,1.4552 0.15353,0.4212 0.13535,0.44819 -0.0891,0.1323 -0.30832,-0.4339 -0.19988,-0.48639 -2.30883,1.11767 -2.79289,2.12428 -7.55543,3.90941 -10.42987,3.90941 -5.5256,0 -9.51304,-2.75866 -12.60689,-8.72193 -0.59157,-1.14021 -0.75151,-1.28579 -1.1013,-1.00236 -0.22507,0.18237 0.14146,-0.34814 0.81451,-1.1789 4.76752,-5.88465 6.47094,-10.76601 7.21925,-20.68768 0.57468,-7.6196 1.47844,-10.5338 4.86672,-15.69301 1.1267,-1.71559 3.31635,-4.69891 4.86589,-6.62961 5.72498,-7.13327 8.51221,-12.2311 10.46519,-19.1408 1.27388,-4.50702 1.49204,-6.11768 1.46533,-10.818621 -0.0223,-3.919967 -0.097,-4.608711 -0.73236,-6.746875 -1.12208,-3.776317 -2.54016,-6.398682 -4.73195,-8.750466 -2.13732,-2.29334 -5.3472,-4.792782 -7.64418,-5.952291 -0.83189,-0.419939 -1.58304,-0.877612 -1.66922,-1.017051 -0.64777,-1.048113 12.96252,-0.232946 22.21085,1.330285 11.09248,1.874946 23.71324,5.90925 32.80833,10.487388 3.18678,1.604107 9.36199,5.573709 13.22328,8.500294 3.91478,2.967132 9.97397,8.766857 12.74953,12.203577 3.64638,4.51497 8.99665,13.1357 11.63781,18.75164 1.51367,3.21855 1.65067,3.601 1.00136,2.79563 -0.3818,-0.47358 -0.40197,-0.35846 -0.25895,1.4773 0.28606,3.6718 -0.71253,8.32197 -2.23027,10.38578 l -0.73755,1.0029 -0.3195,-1.6933 c -0.17573,-0.93132 -0.67458,-2.31503 -1.10857,-3.0749 -1.09149,-1.91114 -2.92105,-2.78246 -5.77901,-2.75221 -3.37074,0.0357 -6.12148,1.48502 -9.80009,5.16363 -4.92011,4.9201 -8.23147,11.9993 -8.2721,17.68451 -0.0131,1.82573 0.10635,2.79924 0.43634,3.55763 1.14492,2.6313 3.08027,4.16014 5.57711,4.40566 l 1.60769,0.15809 -2.00829,0.0403 c -1.90407,0.0383 -2.12375,0.10885 -4.23333,1.36041 -2.70134,1.60263 -4.49435,3.46203 -7.35063,7.62277 -2.48556,3.62073 -4.07594,5.52589 -6.20725,7.43586 -5.64542,5.05913 -15.08034,7.77993 -22.96194,6.62167 z m -146.54794,-1.82328 c -5.95828,-0.61753 -11.64072,-3.33525 -16.15788,-7.72777 -4.15046,-4.03594 -6.28234,-10.09139 -5.99248,-17.02119 0.14804,-3.53928 0.63699,-5.71978 1.89853,-8.46666 1.74062,-3.79001 4.5664,-6.85139 14.69558,-15.92079 1.96453,-1.75899 4.40919,-4.07562 5.43258,-5.14806 5.50839,-5.77244 9.37877,-13.44138 8.20336,-16.25452 -0.304,-0.72758 -0.52763,-0.90939 -1.12087,-0.91128 -0.59309,-0.002 -1.13746,0.43409 -2.72548,2.18281 -1.09141,1.20184 -3.13425,3.33125 -4.53965,4.73201 -3.74977,3.73739 -6.74712,5.07497 -8.07771,3.60472 -1.5631,-1.72715 -0.901,-3.91014 3.57762,-11.79577 5.6232,-9.90092 8.24599,-16.704043 8.24599,-21.388893 0,-1.429788 -0.069,-1.704315 -0.39688,-1.578506 -0.68724,0.263719 -0.43296,-0.03022 0.55361,-0.639951 3.01799,-1.865222 7.28231,-9.685453 8.84618,-16.222794 0.27403,-1.145479 0.56579,-2.15025 0.64836,-2.232825 0.0826,-0.08257 0.77256,0.125604 1.53329,0.462618 6.55327,2.903187 13.17058,5.353984 17.65169,6.537508 0.84492,0.223154 0.98548,0.410261 1.66717,2.219129 2.59354,6.882047 4.09448,9.668362 7.66078,14.221282 2.90428,3.707756 3.76829,4.998342 4.74834,7.092662 0.72993,1.55982 0.79865,1.92408 0.68807,3.64709 -0.15803,2.46252 -1.09671,4.27114 -3.76948,7.26297 -3.77327,4.2237 -3.4336,6.03116 1.79293,9.54058 3.36736,2.26106 4.73542,3.62192 5.72449,5.69431 1.62059,3.39565 1.59296,6.07969 -0.1423,13.8249 -0.51652,2.3054 -1.00727,5.15695 -1.09057,6.33678 -0.13563,1.9209 -0.0811,2.29883 0.5216,3.61531 0.75617,1.65168 1.42758,2.13346 2.97095,2.13183 2.38071,-0.003 5.54686,-2.30399 8.92365,-6.4866 2.96062,-3.66711 4.56206,-6.44469 6.76178,-11.72776 5.29299,-12.71216 6.43085,-25.87341 3.36407,-38.911033 -1.1738,-4.990136 -3.58138,-11.803801 -5.55706,-15.726979 -0.93924,-1.865079 -1.10087,-2.500159 -0.69946,-2.748249 0.12328,-0.07619 1.70086,-0.320618 3.50573,-0.543179 1.80488,-0.222562 5.1866,-0.643663 7.51493,-0.935782 5.83472,-0.732039 5.52796,-0.766847 6.40128,0.726357 0.40427,0.691224 2.52265,3.638143 4.70751,6.548708 7.03129,9.366764 10.46142,14.949107 11.37368,18.510007 0.2222,0.86732 0.40399,2.51753 0.40399,3.66713 0,1.81642 -0.10422,2.28564 -0.79574,3.58243 -0.43765,0.82074 -1.52428,2.32568 -2.41474,3.34433 -6.69182,7.65522 -6.62725,7.45948 -6.67632,20.23604 l -0.0351,9.13271 -0.87221,2.4992 c -0.92016,2.63658 -1.53709,3.75638 -4.8911,8.87788 -3.82581,5.84191 -5.9898,10.93412 -6.00606,14.13316 -0.003,0.4972 -0.0725,0.83612 -0.15542,0.75317 -0.083,-0.083 -1.249,0.36938 -2.59121,1.00519 -8.43514,3.99577 -18.67774,3.02036 -25.4848,-2.42692 -2.59217,-2.07435 -4.00508,-3.54846 -6.43887,-6.71772 -4.035,-5.25435 -5.18914,-6.19454 -7.57661,-6.17213 -3.26466,0.0307 -5.52025,2.99765 -8.64894,11.37678 -2.77857,7.4415 -4.56974,11.01178 -6.33,12.61744 -1.524,1.39015 -6.12918,4.44281 -8.17601,5.41967 -3.83618,1.83083 -8.38799,2.61088 -12.65482,2.16865 z m 132.01285,-3.91302 -0.9118,-0.99219 0.99219,0.9118 c 0.9235,0.84868 1.11384,1.07258 0.91179,1.07258 -0.0442,0 -0.49069,-0.44649 -0.99218,-0.99219 z m -267.744103,0.38023 c 0,-0.0455 0.386953,-0.43249 0.859895,-0.85989 l 0.859896,-0.77711 -0.777105,0.8599 c -0.724371,0.80154 -0.942686,0.98151 -0.942686,0.7771 z m 2.910416,-2.66294 c 0,-0.0549 0.20836,-0.2633 0.463021,-0.46302 0.419644,-0.3291 0.429003,-0.31975 0.09989,0.0999 -0.345644,0.44073 -0.562916,0.58089 -0.562916,0.36312 z m 1.322917,-1.05833 c 0,-0.0549 0.208359,-0.2633 0.463021,-0.46302 0.419644,-0.32911 0.429002,-0.31975 0.0999,0.0999 -0.345644,0.44072 -0.562916,0.58088 -0.562916,0.36312 z m 219.00296,-1.67856 c 0.4697,-0.0585 1.30314,-0.0594 1.85208,-0.002 0.54895,0.0573 0.16466,0.1051 -0.85399,0.10628 -1.01865,0.001 -1.46779,-0.0457 -0.99809,-0.10414 z m -7.22913,-3.05019 -0.50403,-0.59531 0.59531,0.50403 c 0.55945,0.47366 0.71576,0.68659 0.50403,0.68659 -0.0502,0 -0.3181,-0.26789 -0.59531,-0.59531 z m 19.33972,-1.52135 c 0.26339,-0.29105 0.53842,-0.52917 0.61118,-0.52917 0.0728,0 -0.0832,0.23812 -0.3466,0.52917 -0.26338,0.29104 -0.53842,0.52916 -0.61118,0.52916 -0.0728,0 0.0832,-0.23812 0.3466,-0.52916 z m -21.52177,-2.91042 c 0,-0.3638 0.0601,-0.51263 0.13346,-0.33073 0.0734,0.1819 0.0734,0.47956 0,0.66146 -0.0734,0.1819 -0.13346,0.0331 -0.13346,-0.33073 z m 119.94677,-10.31875 c 0.86402,-0.87313 1.63047,-1.5875 1.70323,-1.5875 0.0728,0 -0.57463,0.71437 -1.43864,1.5875 -0.86402,0.87312 -1.63047,1.5875 -1.70323,1.5875 -0.0728,0 0.57463,-0.71438 1.43864,-1.5875 z M 88.370828,157.85635 c 0,-0.0549 0.20836,-0.2633 0.463021,-0.46302 0.419644,-0.32911 0.429003,-0.31975 0.0999,0.0999 -0.345644,0.44072 -0.562916,0.58088 -0.562916,0.36312 z m 3.175001,-3.175 c 0,-0.0549 0.208359,-0.2633 0.46302,-0.46302 0.419644,-0.32911 0.429003,-0.31975 0.0999,0.0999 -0.345643,0.44072 -0.562915,0.58088 -0.562915,0.36312 z m 291.327151,-9.57944 c 0.0127,-0.30823 0.0754,-0.37092 0.15985,-0.15986 0.0764,0.191 0.067,0.4192 -0.0209,0.50712 -0.0879,0.0879 -0.15045,-0.0684 -0.13896,-0.34726 z m 0.28547,-1.43316 c 0,-0.36381 0.06,-0.51263 0.13345,-0.33073 0.0734,0.1819 0.0734,0.47955 0,0.66146 -0.0734,0.1819 -0.13345,0.0331 -0.13345,-0.33073 z m 102.39375,-1.32292 c 0,-0.3638 0.0601,-0.51263 0.13346,-0.33073 0.0734,0.1819 0.0734,0.47956 0,0.66146 -0.0734,0.1819 -0.13346,0.0331 -0.13346,-0.33073 z m -51.56938,-2.31507 c 9.13143,-0.0386 24.07378,-0.0386 33.20521,0 9.13143,0.0386 1.66026,0.0702 -16.6026,0.0702 -18.26287,0 -25.73404,-0.0316 -16.60261,-0.0702 z m -34.39585,-25.2413 c -0.14772,-0.14772 0.01,-1.14775 0.40167,-2.54909 0.49552,-1.77227 0.6763,-3.19609 0.78106,-6.15169 0.1522,-4.29411 -0.18346,-6.607985 -1.4111,-9.727432 -0.89714,-2.279643 -1.41568,-3.147525 -3.46523,-5.799807 -1.80186,-2.331749 -3.62377,-3.955938 -6.17804,-5.507575 -0.87869,-0.533779 -1.55698,-1.092453 -1.50729,-1.241497 0.0497,-0.149045 2.58562,-0.897337 5.63542,-1.662871 3.0498,-0.765534 6.8896,-1.820576 8.5329,-2.344537 l 2.98781,-0.952656 2.51373,1.174671 c 1.38255,0.646069 3.31411,1.706765 4.29236,2.357102 7.31283,4.861559 10.66029,14.215528 8.41761,23.521742 -1.04574,4.33942 -0.89807,4.1736 -4.71297,5.29207 -4.78044,1.40154 -6.7801,1.90552 -11.19468,2.82143 -2.18282,0.45287 -4.16707,0.86611 -4.40946,0.91831 -0.24239,0.0522 -0.5501,-0.0145 -0.68379,-0.14817 z M 119.35542,103.96194 c -6.8167,-0.76948 -12.79967,-2.75399 -17.91516,-5.942331 -2.694981,-1.67971 -4.56725,-3.187393 -8.195308,-6.599447 -2.260937,-2.126325 -3.421796,-3.0355 -3.968751,-3.10829 -0.425194,-0.05659 0.06036,-0.11825 1.079003,-0.137029 3.349082,-0.06174 8.065965,-1.798647 11.906246,-4.384253 0.87313,-0.587862 3.61527,-3.053074 6.09364,-5.478248 4.87082,-4.766257 6.93692,-6.431956 9.71699,-7.83387 2.97698,-1.501212 4.73124,-1.808986 9.58937,-1.682399 8.71745,0.227148 11.47463,0.128845 13.89063,-0.495247 6.41726,-1.657683 10.33926,-5.377308 11.94891,-11.332345 0.48787,-1.804929 0.57482,-3.01805 0.68472,-9.554048 0.0912,-5.425203 0.20877,-7.460095 0.42686,-7.39032 0.42268,0.135227 5.33457,5.840169 9.61961,11.17276 1.98789,2.473854 4.71047,5.63446 6.05018,7.023568 2.68878,2.787918 2.84676,3.11657 3.33821,6.944519 0.24846,1.935327 0.22036,2.980586 -0.16716,6.217709 -0.44849,3.746417 -0.94508,5.526923 -0.94508,3.388579 0,-0.790638 -0.19217,-1.197588 -0.89958,-1.905 -2.46153,-2.461533 -5.30935,-0.04457 -10.47474,8.889999 -6.23442,10.783656 -15.72378,18.216591 -26.86441,21.042643 -4.60621,1.16846 -10.67424,1.64166 -14.91418,1.16305 z m 325.93834,-5.550858 c 0,-0.153175 0.20808,-1.13544 0.46241,-2.182813 0.64578,-2.659471 0.64335,-9.079939 -0.004,-11.826188 -0.98116,-4.159259 -3.44626,-8.545821 -6.5564,-11.666859 -1.83352,-1.839945 -4.1339,-3.281672 -7.00905,-4.392808 -0.95317,-0.368364 -1.69256,-0.791177 -1.64309,-0.939584 0.0495,-0.148407 1.87308,-1.421957 4.05248,-2.830111 2.17939,-1.408154 5.38567,-3.604313 7.12507,-4.880353 3.13018,-2.296327 3.17477,-2.318241 4.35632,-2.141057 0.65657,0.09846 2.14791,0.527141 3.3141,0.952627 6.7584,2.465818 12.31425,9.081483 14.30572,17.034603 0.65357,2.610108 0.62675,8.099204 -0.0511,10.451042 -0.48487,1.682363 -0.54561,1.757219 -2.79089,3.439583 -3.8615,2.893381 -14.31435,9.246387 -15.2304,9.256695 -0.1819,0.002 -0.33073,-0.121603 -0.33073,-0.274777 z M 87.527469,87.925507 c 0.190996,-0.07643 0.419199,-0.06703 0.507118,0.02089 0.08792,0.08792 -0.06835,0.150453 -0.347266,0.138964 -0.308224,-0.0127 -0.370919,-0.07539 -0.159852,-0.159852 z m 84.271801,-1.671343 c 0,-0.945885 0.048,-1.332838 0.10671,-0.859896 0.0587,0.472943 0.0587,1.246849 0,1.719792 -0.0587,0.472943 -0.10671,0.08599 -0.10671,-0.859896 z m -90.327634,-1.521354 -0.641433,-0.727604 0.727604,0.641433 c 0.400183,0.352788 0.727605,0.68021 0.727605,0.727604 0,0.207506 -0.21426,0.03862 -0.813776,-0.641433 z m 90.528414,-1.807986 c 0.0127,-0.308225 0.0754,-0.370919 0.15986,-0.159853 0.0764,0.190996 0.067,0.4192 -0.0209,0.507118 -0.0879,0.08792 -0.15046,-0.06835 -0.13897,-0.347265 z m 0.26459,-1.852083 c 0.0127,-0.308225 0.0754,-0.37092 0.15985,-0.159853 0.0764,0.190996 0.067,0.419199 -0.0209,0.507118 -0.0879,0.08792 -0.15045,-0.06835 -0.13896,-0.347265 z m 0.29527,-1.830035 c 0.005,-0.436563 0.0647,-0.583125 0.13178,-0.325694 0.0671,0.257431 0.0627,0.614619 -0.01,0.79375 -0.0725,0.179132 -0.12736,-0.03149 -0.12197,-0.468056 z M 57.740545,78.052081 c 0,-0.509323 0.05445,-0.717682 0.121,-0.463021 0.06655,0.254661 0.06655,0.67138 0,0.926042 -0.06655,0.254661 -0.121,0.0463 -0.121,-0.463021 z m 20.597005,-0.15434 c 0.0127,-0.308225 0.07539,-0.37092 0.159852,-0.159853 0.07643,0.190996 0.06703,0.419199 -0.02089,0.507118 -0.08792,0.08792 -0.150453,-0.06835 -0.138964,-0.347265 z M 57.794099,76.357345 c -0.09991,-0.398073 -0.120654,-3.424058 -0.0461,-6.724412 0.188645,-8.350753 0.995674,-12.058689 3.689741,-16.952721 6.949538,-12.6245 17.248252,-20.944752 31.765636,-25.66321 5.541581,-1.801132 9.958704,-2.672319 9.675444,-1.908284 -0.0485,0.130837 -1.93367,1.579658 -4.189243,3.219602 -7.968841,5.79385 -12.429295,9.774294 -15.922391,14.208909 -1.6102,2.044208 -4.238024,6.618642 -4.721023,8.21821 -0.179434,0.594236 -0.216788,0.505134 -0.235929,-0.56278 -0.01748,-0.975323 -0.172956,-1.419012 -0.672173,-1.918229 -0.357188,-0.357188 -0.863203,-0.648315 -1.124479,-0.646949 -0.867391,0.0045 -3.251777,1.585207 -5.239694,3.473533 -3.480225,3.305873 -5.548562,7.094119 -8.051011,14.745765 -1.426118,4.360589 -3.188639,8.671608 -4.276992,10.461261 l -0.470134,0.773073 z m 20.014284,-1.370021 c 0.0127,-0.308225 0.07539,-0.370919 0.159852,-0.159852 0.07643,0.190996 0.06703,0.419199 -0.02089,0.507118 -0.08792,0.08792 -0.150453,-0.06835 -0.138964,-0.347266 z m -0.508279,-3.549826 c 0,-0.363802 0.06005,-0.512631 0.133452,-0.33073 0.0734,0.181901 0.0734,0.479558 0,0.661459 -0.0734,0.181901 -0.133452,0.03307 -0.133452,-0.330729 z m -0.254779,-2.778125 c 0.0054,-0.436563 0.06469,-0.583125 0.131773,-0.325694 0.06708,0.257431 0.06267,0.614619 -0.0098,0.79375 -0.07248,0.179132 -0.127362,-0.03149 -0.12197,-0.468056 z m -0.209672,-7.011459 c 0,-2.255572 0.04058,-3.178307 0.09018,-2.05052 0.0496,1.127786 0.0496,2.973255 0,4.101041 -0.0496,1.127787 -0.09018,0.205052 -0.09018,-2.050521 z m 0.199868,-6.349999 c 0,-0.363803 0.06005,-0.512631 0.133452,-0.33073 0.0734,0.181901 0.0734,0.479558 0,0.661459 -0.0734,0.181901 -0.133452,0.03307 -0.133452,-0.330729 z m 0.264583,-1.5875 c 0,-0.363803 0.06005,-0.512631 0.133452,-0.33073 0.0734,0.181901 0.0734,0.479558 0,0.661459 -0.0734,0.181901 -0.133452,0.03307 -0.133452,-0.330729 z M 77.5438,52.233158 c 0.01269,-0.308225 0.07539,-0.37092 0.159852,-0.159853 0.07643,0.190996 0.06703,0.419199 -0.02089,0.507118 -0.08792,0.08792 -0.150453,-0.06835 -0.138964,-0.347265 z M 388.40834,35.089687 c 0,-0.05494 0.20836,-0.263302 0.46302,-0.463021 0.41964,-0.329108 0.429,-0.319749 0.0999,0.09989 -0.34565,0.440729 -0.56292,0.580887 -0.56292,0.363126 z M 272.33185,12.620477 c 0.32222,-0.334778 0.63474,-0.573633 0.69448,-0.530789 0.1544,0.110731 -0.8082,1.139477 -1.06621,1.139477 -0.11777,0 0.0495,-0.273909 0.37173,-0.608688 z m -169.9381,-67.621414 c 0,-0.26685 0.76522,-0.954002 0.88833,-0.797704 0.045,0.05712 -0.13648,0.312208 -0.40326,0.56687 -0.26679,0.254661 -0.48507,0.358537 -0.48507,0.230834 z m -2.679587,-0.495418 c -0.329107,-0.419644 -0.319749,-0.429002 0.0999,-0.09989 0.440727,0.345643 0.580887,0.562915 0.363117,0.562915 -0.0549,0 -0.263292,-0.208359 -0.463012,-0.463021 z" id="path12" /><path style="fill:#303033" d="m 315.69457,187.04694 c -4.15404,-0.8358 -7.77735,-3.9181 -9.96024,-8.47304 -0.48937,-1.02114 -1.02951,-2.025 -1.20031,-2.2308 -0.72317,-0.87137 -1.36775,-4.27099 -1.50465,-7.93581 -0.21583,-5.77794 0.72475,-10.08065 3.47223,-15.88379 1.75115,-3.69873 2.5636,-4.89396 6.41424,-9.43631 6.9389,-8.18537 8.35819,-11.54265 10.40551,-24.61385 2.1128,-13.48934 3.81171,-18.37517 7.926,-22.794145 1.42346,-1.52887 3.8256,-3.215355 5.34168,-3.750257 1.28798,-0.454428 3.13198,-0.491455 4.57146,-0.0918 1.59419,0.442616 3.73616,2.791189 5.2844,5.794104 3.03041,5.877688 5.06207,8.043408 10.73614,11.444598 6.97772,4.18262 8.17635,5.61303 7.87277,9.39504 -0.26781,3.33628 -2.12171,4.96347 -8.96111,7.86528 -7.51351,3.18781 -10.40927,5.01732 -14.65459,9.25861 -3.07933,3.0764 -4.51346,4.88454 -6.58875,8.30699 -5.12514,8.45211 -6.8883,14.04723 -8.47269,26.88677 -0.37711,3.05594 -0.87584,6.44922 -1.1083,7.54062 -0.81455,3.82437 -2.92886,6.80266 -5.73199,8.0743 -1.78764,0.81097 -2.45435,0.92263 -3.8418,0.64348 z m -54.15394,-9.35247 c -2.46531,-0.77967 -4.56522,-2.28057 -5.55592,-3.97107 -0.35976,-0.6139 -0.84644,-1.96783 -1.08151,-3.00874 -0.39008,-1.72731 -0.39128,-2.07239 -0.0138,-3.95205 0.51617,-2.57025 2.76066,-7.1719 5.65042,-11.58449 3.35401,-5.1215 3.97094,-6.2413 4.8911,-8.87788 l 0.87221,-2.4992 0.0351,-9.13271 c 0.0491,-12.77656 -0.0155,-12.58082 6.67632,-20.23604 0.89046,-1.01865 1.97709,-2.52359 2.41474,-3.34433 0.69152,-1.29679 0.79574,-1.76601 0.79574,-3.58243 0,-1.1496 -0.18179,-2.79981 -0.40399,-3.66713 -0.91659,-3.57782 -4.34518,-9.148776 -11.46597,-18.630527 -3.69036,-4.91394 -5.36085,-7.489395 -5.04713,-7.781339 0.19522,-0.181665 10.12148,-1.197209 15.72647,-1.608957 2.91041,-0.213802 7.79198,-0.412871 10.84791,-0.442375 l 5.55625,-0.05364 2.20405,0.957399 c 4.69272,2.038435 9.73205,6.605395 11.67321,10.579002 0.58421,1.195882 1.3806,3.245893 1.76975,4.55558 0.63533,2.138164 0.71009,2.826908 0.73236,6.746875 0.0267,4.700942 -0.19145,6.311602 -1.46533,10.818622 -1.95298,6.9097 -4.74021,12.00753 -10.46519,19.1408 -1.54954,1.9307 -3.73919,4.91402 -4.86589,6.62961 -3.38595,5.15566 -4.29217,8.07523 -4.86533,15.67457 -0.66182,8.77487 -2.17806,13.80201 -5.5981,18.56071 -0.85576,1.19071 -1.93398,2.44087 -2.39604,2.77812 -0.46205,0.33725 -1.63726,1.2907 -2.61156,2.11878 -1.98097,1.68366 -4.5569,3.1261 -6.71568,3.76058 -1.72418,0.50675 -5.76554,0.5357 -7.29416,0.0523 z m 99.57572,-12.93434 c -3.10819,-2.3707 -3.80089,-6.14259 -2.16788,-11.80461 1.36093,-4.71867 4.00932,-9.20415 7.48895,-12.68378 3.67303,-3.67304 6.42289,-5.12338 9.80252,-5.1701 1.71217,-0.0237 2.20366,0.082 3.55555,0.76409 1.31199,0.662 1.70134,1.02974 2.37882,2.24677 0.74665,1.34127 0.80749,1.64164 0.77709,3.83645 -0.0989,7.14183 -5.97162,17.47326 -12.23156,21.51816 -2.45066,1.58351 -4.19274,2.16205 -6.51023,2.16205 -1.80094,0 -2.04307,-0.068 -3.09326,-0.86903 z m -132.78093,-9.79242 c -0.72605,-0.24991 -1.08824,-0.63303 -1.67708,-1.77396 -0.69822,-1.35288 -0.74145,-1.61336 -0.61479,-3.70417 0.0749,-1.23693 0.55975,-4.13519 1.07736,-6.44059 1.73742,-7.73829 1.7655,-10.428 0.14431,-13.8249 -0.98907,-2.07239 -2.35713,-3.43325 -5.72449,-5.69431 -2.9248,-1.9639 -3.99597,-3.11568 -4.22814,-4.54634 -0.23859,-1.47026 0.33148,-2.63938 2.43521,-4.99424 2.6006,-2.91104 3.59896,-4.79499 3.7641,-7.10304 0.077,-1.07557 -0.007,-2.17627 -0.21275,-2.80133 -0.53411,-1.61973 -2.2265,-4.265486 -5.05989,-7.910202 -1.43736,-1.848948 -3.10062,-4.181853 -3.69612,-5.184234 -2.07523,-3.493131 -5.058,-11.08623 -4.35496,-11.08623 0.06,0 1.03053,0.176314 2.15681,0.391808 1.12629,0.215494 3.55918,0.533363 5.40642,0.706375 3.90064,0.365333 11.20518,0.03849 18.6538,-0.834666 2.47385,-0.289995 4.68501,-0.527452 4.91367,-0.527682 0.43914,-4.42e-4 2.48336,4.013439 3.9075,7.672498 6.703,17.222023 6.69774,33.481543 -0.0161,49.606053 -2.19972,5.28307 -3.80116,8.06065 -6.76178,11.72776 -3.98841,4.94018 -7.58844,7.19044 -10.11313,6.3214 z m 152.7364,-36.91916 c -0.16902,-0.10446 -1.45899,-1.91335 -2.86661,-4.01976 -3.41431,-5.10931 -4.83536,-6.83306 -9.37446,-11.37139 -4.43025,-4.429498 -9.37169,-8.293534 -15.21983,-11.901378 -2.18022,-1.345027 -4.20216,-2.683597 -4.49321,-2.9746 -0.52915,-0.529085 -0.52914,-0.529093 0.40417,-0.365771 1.85916,0.325338 17.56953,-0.764245 26.18646,-1.816144 3.71416,-0.453402 10.71957,-1.616039 11.08016,-1.838895 0.32106,-0.198431 3.78051,1.730364 5.55748,3.098547 2.64454,2.03617 5.60089,6.004767 6.91161,9.278157 1.32703,3.314079 1.66807,5.562914 1.50917,9.951364 -0.13421,3.70672 -0.44825,5.50542 -1.41622,8.11171 l -0.4052,1.09101 -2.02735,0.3241 c -5.26292,0.84134 -6.7015,1.05143 -9.03882,1.32005 -3.38443,0.38897 -5.89442,0.82769 -6.22658,1.08834 -0.1504,0.11802 -0.41175,0.12912 -0.58077,0.0247 z m 38.55807,-8.18032 c 3.9e-4,-0.10914 0.36548,-1.62719 0.81132,-3.37344 1.63478,-6.40314 0.88955,-12.371135 -2.21361,-17.727084 -2.06324,-3.561097 -5.24936,-6.29289 -10.04971,-8.616672 -1.27773,-0.618534 -2.28584,-1.236537 -2.24024,-1.373339 0.0762,-0.228727 1.88769,-0.957658 7.87069,-3.167182 2.18402,-0.806557 11.35511,-5.352648 14.28156,-7.079336 1.41547,-0.835173 1.48266,-0.847633 2.88185,-0.534507 0.78793,0.17633 2.51193,0.872271 3.83111,1.546535 4.92963,2.519649 9.09795,8.03015 10.82077,14.304999 0.45301,1.649945 0.55332,2.789475 0.56112,6.37471 0.0141,6.464383 -0.61223,8.546422 -2.96907,9.869996 -3.74941,2.10562 -16.61345,7.6618 -20.94067,9.04461 -0.80037,0.25576 -1.56832,0.56945 -1.70656,0.69708 -0.3073,0.28371 -0.93954,0.30636 -0.93856,0.0336 z M 174.88958,92.429438 c -0.65124,-0.257969 -1.60993,-1.227103 -2.05188,-2.074232 -0.61756,-1.18375 -0.72329,-5.287316 -0.22105,-8.579415 0.23147,-1.51722 0.42024,-3.660345 0.4195,-4.7625 -7.4e-4,-1.102155 0.19684,-3.702065 0.43907,-5.777578 0.45041,-3.859292 0.44644,-3.964488 -0.36119,-9.587799 l -0.133,-0.926041 1.15272,1.098199 c 2.30798,2.198841 8.20516,6.324837 12.62831,8.835472 l 2.47977,1.40755 -0.13431,1.481202 c -0.33239,3.665742 -3.93838,11.844336 -6.69655,15.188193 -1.12193,1.360177 -1.81519,1.913334 -3.3439,2.668149 -1.93122,0.95356 -3.43347,1.323521 -4.17749,1.0288 z M 88.078063,87.708205 c -2.978174,-0.59346 -5.747982,-2.244448 -7.126276,-4.247729 -1.254402,-1.823211 -1.838911,-3.690878 -2.685228,-8.580044 -0.696564,-4.02404 -0.820044,-5.488654 -0.938697,-11.133986 -0.122675,-5.836709 -0.07687,-6.876785 0.448647,-10.186458 0.534389,-3.365575 0.701843,-3.90983 1.926136,-6.260259 3.056435,-5.867821 8.358265,-11.217836 18.325475,-18.492023 4.78323,-3.490854 6.63624,-4.466041 8.4862,-4.466041 2.03824,0 6.48011,-0.519834 7.05056,-0.825129 0.57314,-0.306736 2.04098,-3.175477 4.0655,-7.945606 4.36193,-10.2774672 7.66995,-15.71421775 10.84284,-17.8202647 1.81121,-1.2022142 2.91132,-1.2233635 4.67763,-0.089927 3.91931,2.51501155 10.98546,13.2921907 14.5445,22.1830087 1.31483,3.284581 4.91927,14.427197 5.91799,18.294633 0.68989,2.671522 0.69703,2.793339 0.57099,9.734018 -0.1099,6.051953 -0.20507,7.315929 -0.6849,9.096082 -1.60414,5.95129 -5.52939,9.67448 -11.94735,11.332346 -2.416,0.624092 -5.17318,0.722395 -13.89063,0.495247 -4.85813,-0.126587 -6.61239,0.181187 -9.58937,1.682399 -2.78007,1.401914 -4.84617,3.067613 -9.71699,7.83387 -5.91026,5.783385 -8.769062,7.676812 -13.786012,9.130668 -2.52447,0.731562 -3.873955,0.786696 -6.491015,0.265195 z M 463.62699,86.506938 c 0.0869,-0.648349 0.29146,-2.012253 0.4545,-3.030899 0.16837,-1.051837 0.22453,-2.823811 0.12998,-4.101042 -0.69745,-9.422095 -6.76016,-17.930264 -14.89043,-20.896641 -1.20474,-0.439555 -2.40237,-0.799192 -2.66141,-0.799192 -0.25904,0 -0.7021,-0.186073 -0.98457,-0.413496 -0.40105,-0.322888 -0.43373,-0.446137 -0.14915,-0.562453 0.61016,-0.249389 5.62452,-4.644949 9.07656,-7.956465 9.38184,-8.999926 12.42212,-11.631604 16.27168,-14.08481 3.74671,-2.38766 5.92022,-3.310397 9.69264,-4.11489 7.66877,-1.635417 14.00789,1.997333 15.95001,9.140448 0.74231,2.730212 0.62385,7.685152 -0.25412,10.629879 -2.63425,8.835283 -10.02945,18.319959 -22.79352,29.233732 -3.72422,3.18435 -6.07455,5.109497 -8.83521,7.236877 l -1.16501,0.897768 z M 73.406739,36.824755 c 0.09802,-0.308847 -5.11e-4,-1.60678 -0.218966,-2.884295 -1.397297,-8.171303 -2.386102,-19.091554 -2.208786,-24.3935777 0.247526,-7.4013903 1.255274,-8.77402767 5.088716,-6.9312572 2.318273,1.1144151 8.344824,5.9854967 15.778321,12.7531469 4.854616,4.41977 8.932386,8.904947 8.593936,9.452561 -0.0763,0.123459 -0.828772,0.377945 -1.672159,0.565524 -2.480427,0.551677 -8.695396,2.620356 -11.601289,3.861538 -3.284644,1.402956 -7.361836,3.726304 -10.645914,6.06647 -2.934342,2.090951 -3.364479,2.299521 -3.113859,1.50989 z" id="path10" /></g></g>
  </g>

  <!-- Title section on the right -->
  <text x="820" y="280" font-family="Arial, sans-serif" font-size="42" font-weight="bold" fill="#F2E2CE">
    Desktop Pet
  </text>
  <text x="820" y="340" font-family="Arial, sans-serif" font-size="42" font-weight="bold" fill="#F2E2CE">
    Mitarashi
  </text>

  <!-- Version badge -->
  <rect x="820" y="380" width="140" height="50" rx="25" fill="url(#accent-gradient)"/>
  <text x="890" y="418" font-family="Arial, sans-serif" font-size="26" font-weight="bold" fill="#F2E2CE" text-anchor="middle">
    v0.2.0
  </text>

  <!-- Subtitle -->
  <text x="820" y="480" font-family="Arial, sans-serif" font-size="18" fill="#D98943">
    🎉 System Tray &amp; Random Mode
  </text>

  <rect x="820" y="510" width="80" height="28" rx="14" fill="#D98943"/>
  <text x="860" y="530" font-family="Arial, sans-serif" font-size="12" fill="#F2E2CE" text-anchor="middle">Tray</text>
  <rect x="910" y="510" width="80" height="28" rx="14" fill="#BF622C"/>
  <text x="950" y="530" font-family="Arial, sans-serif" font-size="12" fill="#F2E2CE" text-anchor="middle">Random</text>
  <rect x="1000" y="510" width="80" height="28" rx="14" fill="#D98471"/>
  <text x="1040" y="530" font-family="Arial, sans-serif" font-size="12" fill="#F2E2CE" text-anchor="middle">Bg</text>

  <!-- Paw prints decoration -->
  <g fill="#F2E2CE" opacity="0.2">
    <circle cx="700" cy="550" r="10"/>
    <circle cx="720" cy="540" r="6"/>
    <circle cx="680" cy="540" r="6"/>
    <circle cx="710" cy="525" r="6"/>
    <circle cx="690" cy="525" r="6"/>
  </g>
</svg>
